<svg width="104" height="104" viewBox="0 0 104 104" fill="none" xmlns="http://www.w3.org/2000/svg">
<circle cx="52" cy="52" r="48.5" stroke="white" stroke-width="7"/>
<path d="M41.5459 29.5924C44.7235 29.5924 48.3248 30.5933 51.8025 32.5415C50.8315 32.6845 49.8606 32.7559 48.872 32.7559C48.2895 32.7559 47.7069 32.7381 47.1067 32.6845C48.2365 32.9704 49.4899 33.0777 50.7256 33.0777C51.3964 33.0777 52.0496 33.0419 52.7028 33.0062C55.0154 32.6845 56.4276 32.0589 57.681 31.5227C58.7225 31.058 59.6229 30.6648 60.8762 30.504C61.3705 30.4325 61.8825 30.3967 62.3944 30.3967C67.3197 30.3967 72.2626 33.7568 72.8451 38.5825C73.8161 43.9265 71.5918 47.6798 69.0144 52.0408C66.6665 56.0086 64.0009 60.5125 63.6831 66.9289C63.5419 70.3069 63.7537 75.8475 60.1878 75.8475C59.7994 75.8475 59.3757 75.776 58.8991 75.6509C57.8222 75.3113 57.3103 74.5606 56.4453 73.3095C54.7682 70.9503 52.9499 68.0906 49.843 66.5357C48.7485 66.1067 47.601 65.9101 46.4359 65.9101C46.224 65.9101 46.0122 65.9101 45.7827 65.928C46.5948 65.9995 47.4068 66.1604 48.1659 66.4285C47.6893 67.8762 47.3538 69.5383 47.1773 70.986C47.0184 72.1657 46.8949 72.9521 46.3123 73.8457C45.7651 74.8108 45.1472 75.1683 44.494 75.1683C43.6114 75.1683 42.6934 74.4891 41.9519 73.7921C38.4213 70.5392 36.5854 65.9995 35.1378 61.5849C32.4015 53.4349 27.2644 37.3314 34.82 31.6836C36.5677 30.3074 38.9156 29.6282 41.5283 29.6282M41.5459 26.0179C38.0682 26.0179 34.9966 26.983 32.6663 28.8239C22.8864 36.116 29.1357 54.7396 31.8013 62.693C33.4078 67.5544 35.4556 72.5767 39.5864 76.4015C41.2105 77.9386 42.8346 78.7071 44.5117 78.7071C45.6591 78.7071 47.8128 78.3139 49.331 75.6687C50.2843 74.1674 50.4785 72.8269 50.6727 71.5222C51.573 72.4695 52.3497 73.5955 53.1265 74.6857L53.6031 75.347C54.574 76.7769 55.6156 78.296 57.8575 79.011C58.7225 79.2612 59.4816 79.3684 60.2054 79.3684C66.8607 79.3684 67.0902 71.3971 67.1961 68.0013C67.1961 67.6617 67.2138 67.3221 67.2314 67.0183C67.5139 61.5134 69.8264 57.5993 72.0684 53.8102C74.7517 49.2705 77.5233 44.5878 76.3581 37.9748C75.5284 31.6836 69.4204 26.7685 62.4121 26.7685C61.7236 26.7685 61.0528 26.8222 60.3819 26.9115C58.6872 27.1439 57.4868 27.68 56.3217 28.1805C55.3861 28.5916 54.5034 28.9669 53.2677 29.235C49.384 27.1081 45.3414 26 41.5636 26L41.5459 26.0179Z" fill="white"/>
</svg>
