<svg width="96" height="91" viewBox="0 0 96 91" fill="none" xmlns="http://www.w3.org/2000/svg">
<g clip-path="url(#clip0_3_407)">
<path d="M60.9661 82.1299C60.6525 82.1299 60.3402 82.1025 60.0304 82.049C59.7718 82.0067 59.512 81.9444 59.2572 81.8623C59.2122 81.8486 59.1685 81.8324 59.1247 81.8162L58.8199 81.6993C57.8793 81.3383 57.2584 80.4385 57.2584 79.4341V63.4139C57.2584 61.3441 56.394 59.4051 54.8225 57.9527C54.8175 57.9477 54.8125 57.9427 54.8075 57.939C53.3572 56.5761 51.3022 55.7448 49.1636 55.6552H48.8975C46.7626 55.7448 44.7077 56.5774 43.2511 57.9427C43.2461 57.9477 43.2411 57.9527 43.2361 57.9564C41.6671 59.4013 40.8039 61.3404 40.8039 63.4139L40.7977 79.4304C40.7977 80.3812 40.2393 81.245 39.3698 81.6395C38.8839 81.8598 38.383 82.0042 37.877 82.0689C36.8589 82.2095 35.8146 82.0689 34.8577 81.6619C34.824 81.647 34.7903 81.632 34.7565 81.6159C31.5124 80.0589 29.0214 77.9108 27.355 75.2337C25.7473 72.6524 24.9803 69.7139 25.0765 66.4992C25.1239 64.8252 25.2551 63.4462 25.3713 62.229C25.6299 59.5059 25.801 57.7075 24.9041 54.5562C24.9003 54.545 24.8978 54.5338 24.8953 54.5226C24.0659 51.6563 22.3532 49.0103 20.5406 46.2088C18.7955 43.513 16.9904 40.7239 15.9036 37.5714L15.8973 37.554C13.67 30.9353 15.1391 23.3023 19.7324 17.6295C21.846 14.9499 24.7367 12.9113 28.0945 11.7302C30.949 10.7221 33.9046 10.3823 36.8789 10.7221C37.521 10.7743 40.9039 11.1651 45.1786 13.7539C45.1849 13.7576 45.1911 13.7613 45.1961 13.7651C46.2505 14.416 47.3023 15.1316 48.3191 15.8236C48.3516 15.846 48.3841 15.8672 48.4153 15.8896C48.8988 15.6419 49.4672 15.3444 50.093 15.0171C52.6339 13.6867 55.7956 12.0301 57.7431 11.4402C61.8255 10.2043 66.0528 10.3064 69.9678 11.7352C73.3069 12.9076 76.1926 14.9449 78.315 17.6282C82.9096 23.2986 84.3799 30.9328 82.1513 37.554C82.1501 37.559 82.1476 37.5639 82.1463 37.5689C81.0545 40.7451 79.2469 43.5529 77.498 46.2673C75.6967 49.0626 73.9953 51.7049 73.147 54.5724C72.2539 57.7212 72.4238 59.5171 72.6836 62.2353C72.7998 63.4525 72.9309 64.8315 72.9784 66.5079C73.0733 69.7251 72.3151 72.6599 70.7248 75.2299C69.0609 77.9157 66.56 80.0676 63.2908 81.6246C63.2621 81.6383 63.2321 81.652 63.2021 81.6644C62.4814 81.9731 61.7218 82.1299 60.9636 82.1299H60.9661ZM58.1441 54.4019C60.715 56.7815 62.1303 59.9813 62.1303 63.4139V76.7608C66.1777 74.5081 68.2402 71.0307 68.1103 66.6485C68.0665 65.1302 67.9491 63.8918 67.8354 62.6933C67.5581 59.7822 67.3195 57.2694 68.465 53.2382C68.4675 53.2307 68.47 53.2232 68.4713 53.2158C69.5156 49.6762 71.4894 46.6108 73.3994 43.6462C75.0633 41.0625 76.6361 38.6218 77.5368 36.0045C79.2394 30.9365 78.0827 25.0609 74.5187 20.6688C74.5124 20.66 74.5049 20.6513 74.4987 20.6439C72.9459 18.6762 70.8148 17.1777 68.3389 16.3115C68.3276 16.3077 68.3176 16.304 68.3064 16.3003C65.3895 15.2324 62.2278 15.159 59.1622 16.0875C57.8356 16.4895 55.3047 17.7801 53.1935 18.8815C54.0143 19.3097 54.84 19.6768 55.6682 19.9494C56.9461 20.3688 57.6407 21.7403 57.2197 23.0135C56.7987 24.2868 55.4221 24.9787 54.1442 24.5593C50.9987 23.5276 48.2404 21.6495 45.5734 19.8349C44.559 19.1441 43.5996 18.492 42.6415 17.8996C39.2799 15.8659 36.6603 15.5797 36.4804 15.5622C36.433 15.5598 36.4167 15.5573 36.3655 15.551C34.1219 15.2897 31.8859 15.5448 29.721 16.309C27.2288 17.1852 25.099 18.6824 23.5574 20.6414C23.5499 20.6513 23.5424 20.66 23.5349 20.6688C19.9697 25.0634 18.8142 30.939 20.5156 36.0045C21.4113 38.5969 22.9778 41.0176 24.6367 43.579C26.5693 46.566 28.5692 49.6538 29.5923 53.227C29.5973 53.2419 29.6011 53.2581 29.6048 53.273C30.7379 57.2756 30.4993 59.7847 30.2232 62.687C30.1095 63.8856 29.9908 65.1252 29.9484 66.6411C29.8184 71.0083 31.8821 74.4844 35.9295 76.7533L35.9345 63.4139C35.9345 59.9739 37.3511 56.7728 39.9245 54.3994C42.2692 52.2064 45.406 50.9295 48.7601 50.8038C48.7901 50.8038 48.8213 50.8025 48.8513 50.8025H49.2148C49.2448 50.8025 49.276 50.8025 49.306 50.8038C52.6676 50.9295 55.8069 52.2077 58.1454 54.4031L58.1441 54.4019Z" fill="white"/>
<path d="M5.32778 5.2024H12.7056V0.00378418H2.72195C1.28162 0.00378418 0.109863 1.16498 0.109863 2.6062V12.7744H5.32778V5.2024Z" fill="white"/>
<path d="M2.60584 91H12.8118V85.8014H5.21667V78.4509H0V88.3976C0 89.8326 1.16551 91 2.60584 91Z" fill="white"/>
<path d="M90.6659 12.7706H95.8838V2.60242C95.8838 1.16742 94.7183 0 93.2717 0H83.2881V5.19861H90.6659V12.7706Z" fill="white"/>
<path d="M96.0001 88.3964V78.4497H90.7822V85.8002H83.187V90.9988H93.393C94.8271 90.9988 95.9988 89.8314 95.9988 88.3964H96.0001Z" fill="white"/>
</g>
<defs>
<clipPath id="clip0_3_407">
<rect width="96" height="91" fill="white"/>
</clipPath>
</defs>
</svg>
