<svg width="109" height="88" viewBox="0 0 109 88" fill="none" xmlns="http://www.w3.org/2000/svg">
<path d="M94.7 54.0001C92.8759 54.0001 91.4 55.5208 91.4 57.4001V71C91.3936 76.6313 86.9656 81.1934 81.5 81.2H68.3C66.4759 81.2 65 82.7207 65 84.6C65 86.4793 66.476 88 68.3 88H81.5C90.6072 87.9867 97.9871 80.3832 98 71V57.4001C98 56.4969 97.652 55.6336 97.0332 54.9961C96.4145 54.3586 95.5766 54.0001 94.7 54.0001Z" fill="white"/>
<path d="M13.4 54.0001C11.5207 54.0001 10 55.5208 10 57.4001V71C10.0133 80.3832 17.6169 87.9867 27 88H40.6C42.4794 88 44 86.4793 44 84.6C44 82.7207 42.4793 81.2 40.6 81.2H27C21.3688 81.1934 16.8066 76.6313 16.8 71V57.4001C16.8 56.4969 16.4414 55.6336 15.8039 54.9961C15.1664 54.3586 14.3032 54.0001 13.4 54.0001Z" fill="white"/>
<path d="M95.5999 34C96.5031 34 97.3664 33.6414 98.0039 33.0039C98.6414 32.3664 99 31.5031 99 30.5999V17C98.9867 7.61684 91.3832 0.01326 82 0H68.4C66.5207 0 65 1.5207 65 3.39999C65 5.27929 66.5207 6.79999 68.4 6.79999H82C87.6313 6.80663 92.1934 11.3687 92.2 17V30.5999C92.2 31.5031 92.5586 32.3664 93.1961 33.0039C93.8336 33.6414 94.6967 34 95.5999 34Z" fill="white"/>
<path d="M105.594 41H3.40625C1.52345 41 0 42.3418 0 44C0 45.6582 1.5235 47 3.40625 47H105.594C107.477 47 109 45.6582 109 44C109 42.3418 107.477 41 105.594 41Z" fill="white"/>
<path d="M27 0C17.6169 0.0132804 10.0133 7.61685 10 17V30.6C10 32.4794 11.5207 34 13.4 34C15.2793 34 16.8 32.4793 16.8 30.6V17C16.8066 11.3688 21.3688 6.80663 27 6.8H40.6C42.4794 6.8 44 5.2793 44 3.4C44 1.5207 42.4793 0 40.6 0H27Z" fill="white"/>
</svg>
