<svg width="113" height="101" viewBox="0 0 113 101" fill="none" xmlns="http://www.w3.org/2000/svg">
<path d="M34.9152 9.24341C28.6012 9.24341 22.2728 11.7132 17.5083 16.696C7.96493 26.6472 7.97941 42.6068 17.5083 52.5725L53.9151 90.6587C55.2619 92.0741 57.521 92.1319 58.9257 90.7742C58.9692 90.7309 59.0126 90.702 59.0416 90.6587C71.1916 77.9777 83.3417 65.2823 95.4918 52.6158C105.035 42.6645 105.035 26.705 95.4918 16.7393C85.9484 6.7881 70.2069 6.7881 60.6635 16.7393L56.4928 21.0578L52.3221 16.7104C47.5576 11.7276 41.2292 9.25785 34.9152 9.25785V9.24341ZM34.9152 16.1761C39.3321 16.1761 43.7635 17.9959 47.2246 21.5922L53.9585 28.6404C55.3053 30.0558 57.5644 30.1136 58.9692 28.7559C59.0126 28.7126 59.056 28.6837 59.085 28.6404L65.7755 21.6355C72.6832 14.4285 83.4431 14.4285 90.3508 21.6355C97.2585 28.8426 97.2585 40.527 90.3508 47.734C79.0696 59.5195 67.774 71.2761 56.4928 83.0472L22.6348 47.6907C15.7271 40.4692 15.7271 28.7992 22.6348 21.5922C26.0959 17.9814 30.4983 16.1761 34.9007 16.1761H34.9152Z" fill="#8093CA"/>
</svg>
