<svg width="131" height="105" viewBox="0 0 131 105" fill="none" xmlns="http://www.w3.org/2000/svg">
<g clip-path="url(#clip0_19_1120)">
<path d="M129.76 50.5744L111.672 22.847C109.337 19.3034 104.61 18.259 101.003 20.4955L95.0358 24.2387C93.3029 25.3159 92.0871 27.0453 91.6518 29.0385C91.5427 29.5252 91.4854 30.0188 91.4731 30.5191C87.572 31.9477 84.5142 31.5185 79.6852 30.8458C77.4461 30.5314 74.9067 30.1732 71.8243 29.9545C64.3919 29.4159 59.492 33.4789 55.5718 38.5604C52.8796 37.1564 50.2762 36.0613 47.7491 34.9977L47.7559 34.9909C44.9164 33.8753 42.1533 32.5684 39.4925 31.0755C39.5376 30.3701 39.4857 29.6592 39.3329 28.9675C38.8976 26.9742 37.6832 25.2448 35.9489 24.1676L29.982 20.4245C26.3811 18.2002 21.6613 19.2392 19.3266 22.7759L1.23612 50.4979C0.122686 52.2027 -0.260738 54.2847 0.174537 56.278C0.615269 58.2712 1.83104 60.0006 3.55849 61.0779L9.52544 64.821C10.7603 65.5893 12.1794 65.9994 13.6312 65.9994C14.8784 65.9926 16.0996 65.7041 17.2062 65.1409C20.2763 67.1601 22.042 68.3959 23.7435 69.6332L22.3681 71.7932H22.3749C20.9422 74.0366 20.8467 76.8815 22.1184 79.2138C23.3915 81.5529 25.8339 83.0075 28.4892 83.0143C28.6557 83.0143 28.8153 83.0143 28.9818 82.9952C28.5847 85.8141 29.8769 88.603 32.2825 90.1205C33.4533 90.8574 34.8028 91.2415 36.1782 91.2415C36.3447 91.2415 36.492 91.2415 36.6517 91.2224V91.2292C36.1277 94.5417 37.9316 97.7913 41.0208 99.0982C44.11 100.4 47.6918 99.4181 49.6935 96.7277C50.8001 98.874 52.8974 100.342 55.2962 100.631C57.6949 100.919 60.0801 99.9964 61.667 98.17L70.0587 103.533C71.5173 104.475 73.212 104.988 74.9518 105C75.3352 105 75.7186 104.969 76.0966 104.917C78.1556 104.686 80.0045 103.539 81.137 101.802C81.9939 100.438 82.346 98.8166 82.1222 97.2198C85.135 97.969 88.2938 96.7646 90.0595 94.2081C90.9423 92.811 91.2875 91.139 91.031 89.5039C93.9797 90.1451 97.0184 88.9339 98.7254 86.4403C99.5059 85.229 99.9084 83.8059 99.8825 82.365C101.284 82.8011 102.767 82.8708 104.2 82.5632C106.035 82.2105 107.648 81.1086 108.645 79.5255C109.65 77.9424 109.95 76.0134 109.49 74.2006C109.107 72.5793 108.262 71.1055 107.065 69.9585C108.076 69.2148 108.959 68.4588 109.816 67.7151V67.7083C110.916 66.6953 112.106 65.7861 113.372 64.985C114.588 65.6959 115.962 66.0678 117.363 66.0678C118.815 66.0746 120.241 65.6645 121.476 64.8948L127.443 61.1517C129.17 60.0689 130.384 58.3382 130.82 56.3518C131.26 54.3586 130.877 52.2765 129.765 50.5717H129.758L129.76 50.5744ZM11.4644 61.7368L5.49062 57.9937C4.59551 57.4304 3.96238 56.5323 3.73861 55.4946C3.50801 54.4625 3.70722 53.3797 4.2885 52.4952L22.3708 24.7732C23.1445 23.5879 24.4626 22.8757 25.8762 22.8825C26.6499 22.8825 27.4113 23.0944 28.0635 23.51L34.0305 27.2531C34.9324 27.8109 35.5655 28.7145 35.7893 29.7453C36.0199 30.7775 35.8152 31.8602 35.2394 32.7502L17.1516 60.4722C15.9045 62.3629 13.3911 62.9207 11.4658 61.7341L11.4644 61.7368ZM26.5585 78.7955C24.8692 77.7059 24.3712 75.4502 25.445 73.7522L30.9453 65.1272C31.4693 64.3138 32.2948 63.7369 33.2418 63.5318C33.5038 63.4744 33.7726 63.4484 34.0414 63.4484C35.3718 63.4552 36.5875 64.1853 37.2207 65.3514C37.8538 66.5175 37.8088 67.9339 37.0992 69.0617L31.6044 77.6936C30.5101 79.386 28.2655 79.8782 26.5708 78.8023L26.5585 78.7955ZM34.2133 87.0363H34.2201C33.4082 86.5237 32.8393 85.7102 32.6346 84.7738C32.4299 83.8373 32.6032 82.8639 33.1272 82.056L42.2093 68.0159V68.0227C42.8997 66.9591 44.0773 66.3248 45.3435 66.3248C46.0339 66.3248 46.7189 66.523 47.307 66.8949C48.6824 67.7602 49.3019 69.4513 48.8039 71.003L39.3056 85.9085H39.3124C38.199 87.6064 35.9353 88.1122 34.2147 87.0363H34.2133ZM41.8763 95.4577L41.8831 95.4508C40.1939 94.3612 39.6959 92.1124 40.7697 90.4076L42.3757 87.8826L51.4578 73.8479C51.7075 73.4638 51.9245 73.0468 52.0978 72.6175L52.1878 72.4767C53.2685 70.7788 55.5268 70.2784 57.2215 71.3612C58.9162 72.4439 59.4156 74.7065 58.3349 76.4044L53.3968 84.1654L50.0265 89.4588L46.925 94.3284L46.9181 94.3353C46.3996 95.1487 45.5755 95.7324 44.6285 95.9443C43.6884 96.1494 42.6964 95.9758 41.8777 95.4577H41.8763ZM54.2018 96.4638C52.5071 95.3743 52.0145 93.1185 53.0884 91.4206L53.1266 91.3564L58.5819 82.7888C59.1058 81.9685 59.9314 81.3984 60.8783 81.1933C61.1403 81.1359 61.4091 81.1031 61.6779 81.1031C62.3684 81.1031 63.0397 81.3013 63.6223 81.6732C65.317 82.7559 65.8164 85.0117 64.7358 86.7164L59.2355 95.3483C58.717 96.1617 57.8928 96.7386 56.9458 96.9505C56.0057 97.1624 55.0137 96.982 54.2018 96.4638ZM105.556 77.5979C105.057 78.3347 104.29 78.8474 103.414 79.0142C102.058 79.2767 100.658 78.9882 99.5127 78.2254L96.1615 76.0654L96.0783 76.0134L96.066 76.0011L84.5278 68.5614H84.521C84.1185 68.2797 83.619 68.1827 83.1333 68.2797C82.653 68.3754 82.2314 68.6639 81.9694 69.0809C81.7006 69.4978 81.6173 69.9968 81.7265 70.478C81.8357 70.9593 82.1358 71.3748 82.5575 71.625L94.1857 79.1222C95.1381 79.6991 95.8422 80.6219 96.1424 81.6978C96.3662 82.652 96.1874 83.6651 95.6498 84.4853C94.55 86.2161 91.7801 86.4977 89.5996 85.1074L79.4682 78.6218C78.6182 78.0777 77.4925 78.3265 76.948 79.1728C76.4104 80.0245 76.6533 81.1523 77.4979 81.6978L84.9617 86.4717L84.9876 86.484C86.0683 87.1512 86.8747 88.1765 87.265 89.3809C87.5979 90.3297 87.4956 91.3796 86.9771 92.245C85.8773 93.9757 83.1074 94.2573 80.9269 92.867L78.0806 91.0474L78.0287 91.016L78.0028 91.0036L74.1453 88.5429H74.1522C73.3021 87.9988 72.1764 88.2476 71.6319 89.0938C71.0943 89.94 71.3372 91.0679 72.1887 91.612L76.1034 94.1179C78.2525 95.5151 79.1476 98.129 78.0546 99.8529H78.0478C77.4856 100.685 76.5837 101.224 75.5794 101.327C74.3255 101.474 73.0592 101.179 72.0044 100.48L63.6837 95.1487L67.7895 88.6823C69.2031 86.4717 69.3177 83.6705 68.0965 81.3519C66.8753 79.0333 64.5024 77.5459 61.8799 77.4625C63.1393 74.7065 62.558 71.4514 60.4212 69.3051C58.2844 67.1519 55.0478 66.549 52.2861 67.7862C51.7812 66.1389 50.7005 64.7294 49.2473 63.8134C46.5866 62.1606 43.1781 62.3588 40.7274 64.307C39.6918 61.8011 37.3435 60.0771 34.639 59.8406C31.9401 59.5973 29.3298 60.8851 27.8657 63.1736L25.7098 66.5572C24.0205 65.3391 22.435 64.2304 20.0621 62.6678C20.1071 62.6035 20.1522 62.5393 20.1958 62.475L38.2836 34.753C38.3095 34.7079 38.3354 34.6628 38.3668 34.6245V34.6177C40.9566 36.0148 43.6242 37.2644 46.3614 38.3539C48.6647 39.3219 51.0376 40.3212 53.4418 41.5448C52.604 42.782 51.8044 44.0315 51.0239 45.2619C49.3156 48.1205 47.3848 50.8369 45.248 53.3811C43.8603 54.9259 44.2314 57.265 46.1759 59.2063V59.2131C47.8965 61.1872 50.3403 62.3848 52.956 62.5256H53.2057C57.4139 62.378 60.6 58.7128 63.6755 55.1693C66.0743 52.4077 68.5564 49.5491 70.6468 49.6517C72.0345 50.2354 73.3007 51.0748 74.3691 52.1247C76.1798 53.7776 78.2579 55.1105 80.5094 56.0661L103.523 71.8178L103.587 71.8629V71.8561C104.758 72.5615 105.602 73.7017 105.934 75.0223C106.158 75.8999 106.017 76.8227 105.556 77.5979ZM107.43 64.9673C106.335 65.9543 105.171 66.8648 103.95 67.6905L90.5507 58.5145C92.6616 58.7073 94.797 58.4626 96.8124 57.7968C97.7457 57.4386 98.2069 56.3873 97.848 55.4509C97.496 54.5158 96.4535 54.0414 95.5134 54.3941C92.5647 55.522 86.9812 54.8876 82.2477 52.8493H82.2546C82.159 52.7973 82.0622 52.7536 81.9598 52.7208C80.0986 51.9265 78.378 50.8233 76.8689 49.4657C76.8307 49.4343 73.2994 46.1273 70.8433 46.0056C66.9667 45.832 63.8966 49.3509 60.9288 52.7659C58.3581 55.7202 55.7028 58.777 53.0679 58.8727H53.0748C51.3801 58.7579 49.8122 57.9431 48.7452 56.6239C48.4641 56.3545 48.2403 56.0346 48.0862 55.6696C50.3062 53.0106 52.3134 50.1848 54.0927 47.2169C58.762 39.8919 63.1625 32.9771 71.5801 33.58C74.5288 33.7919 77.004 34.1378 79.1913 34.4454C84.0775 35.1317 87.7494 35.6444 92.2904 34.0927C92.4187 34.3429 92.5592 34.5862 92.7066 34.8173L110.692 62.3793C109.547 63.1682 108.46 64.0322 107.43 64.955V64.9673ZM127.264 55.5849C127.04 56.617 126.4 57.5138 125.505 58.0771L119.531 61.8065C117.606 62.9986 115.086 62.4409 113.839 60.5502L95.7563 32.8227C95.1736 31.9382 94.9758 30.8554 95.2064 29.8178C95.4301 28.7856 96.0633 27.8888 96.9584 27.3256L102.925 23.5824C103.584 23.1723 104.346 22.955 105.119 22.955C106.526 22.955 107.844 23.6604 108.625 24.8388L126.713 52.5608H126.706C127.288 53.4522 127.493 54.5349 127.263 55.5726V55.5849H127.264ZM63.681 18.0648V1.81961C63.681 0.813424 64.4929 0 65.4971 0C66.5014 0 67.3133 0.813424 67.3133 1.81961V18.0648C67.3133 19.071 66.5014 19.8844 65.4971 19.8844C64.4929 19.8844 63.681 19.071 63.681 18.0648ZM77.7776 20.4422L85.8882 6.36931C86.1243 5.94004 86.5213 5.63245 86.988 5.4971C87.4615 5.3686 87.9595 5.43285 88.3825 5.67619C88.8055 5.91954 89.1112 6.32283 89.2326 6.79721C89.3609 7.2716 89.2844 7.77059 89.0347 8.18755L80.9242 22.2605H80.931C80.6881 22.6897 80.291 23.0042 79.8244 23.1327C79.3509 23.2612 78.8529 23.1969 78.4299 22.9536C78.0069 22.7102 77.7012 22.3069 77.5798 21.838C77.4583 21.3636 77.5279 20.8578 77.7776 20.4409V20.4422ZM42.1711 8.99687C41.9214 8.57991 41.8518 8.07408 41.9732 7.5997C42.0946 7.13215 42.4017 6.72749 42.8233 6.48415C43.2449 6.23397 43.7511 6.16972 44.2178 6.30506C44.6913 6.43357 45.0884 6.74663 45.3244 7.17043L53.435 21.2433C53.9344 22.1156 53.6397 23.2297 52.7691 23.7356C51.8986 24.2359 50.7865 23.9406 50.2816 23.0684L42.1711 8.99551V8.99687Z" fill="#8093CA"/>
</g>
<defs>
<clipPath id="clip0_19_1120">
<rect width="131" height="105" fill="white"/>
</clipPath>
</defs>
</svg>
