<svg width="118" height="108" viewBox="0 0 118 108" fill="none" xmlns="http://www.w3.org/2000/svg">
<g clip-path="url(#clip0_1_211)">
<path d="M44.0452 19.7106C49.1804 19.7106 54.9985 21.3168 60.6117 24.4613C59.0411 24.6927 57.4705 24.8016 55.8726 24.8016C54.9302 24.8016 53.9878 24.7744 53.0182 24.6927C54.8483 25.1555 56.8696 25.3325 58.8635 25.3325C59.9425 25.3325 61.0077 25.278 62.0594 25.2236C65.8015 24.7063 68.0823 23.699 70.1036 22.8414C71.7834 22.0927 73.2448 21.4666 75.2661 21.2079C76.0582 21.099 76.8913 21.031 77.7244 21.031C85.6867 21.031 93.6626 26.4351 94.605 34.2077C96.1756 42.8107 92.5837 48.8545 88.4182 55.8785C84.6214 62.2626 80.3193 69.518 79.8003 79.8497C79.5682 85.2946 79.9096 94.2107 74.1598 94.2107C73.5316 94.2107 72.8487 94.1018 72.0839 93.8976C70.3494 93.3531 69.5163 92.1416 68.1233 90.127C65.4191 86.3292 62.4827 81.7282 57.4568 79.2236C55.695 78.5293 53.8376 78.2163 51.9529 78.2163C51.6115 78.2163 51.27 78.2162 50.9013 78.2435C52.2124 78.3524 53.5235 78.611 54.7527 79.0466C53.9878 81.3743 53.4415 84.0559 53.1547 86.3836C52.8952 88.2894 52.704 89.5553 51.7617 90.9846C50.874 92.5364 49.877 93.1081 48.8253 93.1081C47.405 93.1081 45.9163 92.0191 44.7145 90.8893C39.0057 85.6486 36.042 78.3388 33.7066 71.2331C29.2816 58.1109 20.9915 32.1931 33.1876 23.1C36.0147 20.8812 39.7978 19.7923 44.0179 19.7923M44.0452 13.9526C38.4321 13.9526 33.4608 15.5044 29.705 18.4719C13.9034 30.2057 23.9962 60.1936 28.3119 73.0027C30.9068 80.8298 34.2119 88.9155 40.8904 95.0683C43.5126 97.5457 46.1348 98.7844 48.8527 98.7844C50.7101 98.7844 54.179 98.1447 56.6374 93.8976C58.1807 91.4746 58.4948 89.3239 58.8089 87.2276C60.2566 88.7522 61.5131 90.5626 62.7696 92.3186L63.5344 93.3804C65.105 95.6808 66.7848 98.1311 70.404 99.2745C71.7971 99.6829 73.0263 99.8462 74.2008 99.8462C84.9492 99.8462 85.3179 87.0098 85.4955 81.5513C85.4955 81.0068 85.5228 80.4623 85.5501 79.9722C86.0008 71.1106 89.7429 64.8081 93.3622 58.7098C97.6915 51.4 102.171 43.8588 100.286 33.214C98.948 23.0864 89.0737 15.1777 77.7654 15.1777C76.6591 15.1777 75.5665 15.2594 74.4876 15.4091C71.7561 15.7766 69.8168 16.6478 67.9321 17.4509C66.4161 18.1179 64.9957 18.7169 63.0017 19.1525C56.733 15.7222 50.2047 13.939 44.0999 13.939L44.0726 13.9662L44.0452 13.9526Z" fill="#8093CA"/>
<mask id="mask0_1_211" style="mask-type:luminance" maskUnits="userSpaceOnUse" x="-22" y="2" width="160" height="88">
<path d="M30.333 69.8175L23.9686 37.5291L-21.5378 52.1351L-9.00034 89.038L129.049 70.3892L137.926 7.5548L113.821 2.55908L89.1418 19.8467L95.5061 27.9188L96.0798 49.0587L88.4179 55.8512L30.333 69.8175Z" fill="white"/>
</mask>
<g mask="url(#mask0_1_211)">
<path d="M65.2983 66.8066C93.3339 59.1465 114.189 46.1306 111.88 37.7347C109.571 29.3387 84.9715 28.7422 56.9359 36.4022C28.9004 44.0623 8.04509 57.0782 10.3543 65.4742C12.6635 73.8701 37.2628 74.4666 65.2983 66.8066Z" stroke="#8093CA" stroke-width="4" stroke-miterlimit="10"/>
</g>
<path d="M36.6702 49.1949C36.6702 45.8055 39.4154 43.0694 42.8161 43.0694C39.4154 43.0694 36.6702 40.3333 36.6702 36.9438C36.6702 40.3333 33.9251 43.0694 30.5244 43.0694C33.9251 43.0694 36.6702 45.8055 36.6702 49.1949Z" fill="#8093CA"/>
<path d="M47.5961 62.7662C47.5961 57.1307 52.1713 52.5706 57.8255 52.5706C52.1713 52.5706 47.5961 48.0105 47.5961 42.375C47.5961 48.0105 43.0209 52.5706 37.3667 52.5706C43.0209 52.5706 47.5961 57.1307 47.5961 62.7662Z" fill="#8093CA"/>
<mask id="mask1_1_211" style="mask-type:luminance" maskUnits="userSpaceOnUse" x="-17" y="2" width="148" height="79">
<path d="M28.8889 12.5768L95.9877 28.9115L130.5 49.4661L126.444 75.4111L95.9877 80.5974L80.9509 76.187L82.4806 60.424L24.0678 45.4369L29.6537 61.7716L13.2648 64.848L-17 41.9793L-12.9574 4.69524L18.6731 2L28.8889 12.5768Z" fill="white"/>
</mask>
<g mask="url(#mask1_1_211)">
<path d="M107.65 65.4453C109.953 57.0711 89.1576 44.0905 61.2021 36.4523C33.2466 28.8141 8.71703 29.4108 6.41379 37.785C4.11055 46.1591 24.9058 59.1397 52.8614 66.7779C80.8169 74.4161 105.346 73.8195 107.65 65.4453Z" stroke="#8093CA" stroke-width="4" stroke-miterlimit="10"/>
</g>
</g>
<defs>
<clipPath id="clip0_1_211">
<rect width="118" height="108" fill="white"/>
</clipPath>
</defs>
</svg>
