<svg width="91" height="100" viewBox="0 0 91 100" fill="none" xmlns="http://www.w3.org/2000/svg">
<path d="M33.5003 35.9216C37.1587 35.9216 41.3036 37.0748 45.3025 39.3325C44.1836 39.4987 43.0646 39.5768 41.9263 39.5768C41.2549 39.5768 40.5836 39.5573 39.8927 39.4987C41.1965 39.831 42.6365 39.958 44.0571 39.958C44.8257 39.958 45.5847 39.9189 46.3339 39.8798C48.9998 39.5084 50.6247 38.7852 52.0647 38.1695C53.2615 37.6319 54.3025 37.1823 55.7425 36.9966C56.3069 36.9185 56.9004 36.8696 57.4939 36.8696C63.1664 36.8696 68.8486 40.7497 69.5199 46.3303C70.6388 52.5072 68.0799 56.8466 65.1123 61.8897C62.4074 66.4735 59.3426 71.6828 58.9728 79.1009C58.8074 83.0103 59.0507 89.4119 54.9544 89.4119C54.5069 89.4119 54.0204 89.3337 53.4755 89.1871C52.2398 88.7962 51.6463 87.9264 50.6539 86.4799C48.7274 83.7531 46.6355 80.4496 43.0549 78.6513C41.7998 78.1529 40.4765 77.9281 39.1338 77.9281C38.8906 77.9281 38.6473 77.9281 38.3846 77.9476C39.3187 78.0258 40.2527 78.2115 41.1284 78.5243C40.5836 80.1955 40.1944 82.1209 39.99 83.7922C39.8052 85.1605 39.669 86.0694 38.9976 87.0956C38.3652 88.2098 37.6549 88.6203 36.9057 88.6203C35.8938 88.6203 34.8333 87.8384 33.977 87.0272C29.91 83.2644 27.7986 78.016 26.1348 72.9143C22.9824 63.4926 17.0764 44.8839 25.7651 38.3552C27.7792 36.7621 30.4743 35.9802 33.4808 35.9802M33.5003 31.7874C29.5013 31.7874 25.9597 32.9015 23.284 35.0322C12.0267 43.4569 19.217 64.9879 22.2916 74.1848C24.1402 79.8046 26.4948 85.61 31.2527 90.0277C33.1208 91.8064 34.9889 92.6958 36.9252 92.6958C38.2484 92.6958 40.7198 92.2365 42.4711 89.1871C43.5706 87.4475 43.7944 85.9032 44.0182 84.3981C45.0495 85.4928 45.9447 86.7926 46.8398 88.0534L47.3847 88.8157C48.5036 90.4675 49.7004 92.2267 52.2787 93.0477C53.2712 93.3409 54.1469 93.4582 54.9836 93.4582C62.641 93.4582 62.9037 84.2417 63.0301 80.3226C63.0301 79.9316 63.0496 79.5407 63.0691 79.1889C63.3901 72.8263 66.0561 68.3012 68.6345 63.9226C71.7188 58.6743 74.9102 53.2597 73.5675 45.6169C72.614 38.3454 65.5793 32.667 57.5231 32.667C56.735 32.667 55.9566 32.7256 55.188 32.8331C53.242 33.097 51.8604 33.7225 50.5177 34.2992C49.4377 34.7781 48.4258 35.2081 47.0052 35.5208C42.5392 33.0579 37.8884 31.7776 33.5392 31.7776L33.5197 31.7971L33.5003 31.7874Z" fill="#8093CA"/>
<path d="M28.2463 57.0911C28.2463 54.6575 30.202 52.693 32.6247 52.693C30.202 52.693 28.2463 50.7285 28.2463 48.2949C28.2463 50.7285 26.2906 52.693 23.8679 52.693C26.2906 52.693 28.2463 54.6575 28.2463 57.0911Z" fill="#8093CA"/>
<path d="M36.03 66.835C36.03 62.7888 39.2895 59.5147 43.3176 59.5147C39.2895 59.5147 36.03 56.2406 36.03 52.1943C36.03 56.2406 32.7706 59.5147 28.7424 59.5147C32.7706 59.5147 36.03 62.7888 36.03 66.835Z" fill="#8093CA"/>
<path d="M4.6582 34.7127L45.9661 5L87 34.7127" stroke="#8093CA" stroke-width="8" stroke-linecap="round"/>
</svg>
