<svg width="20" height="14" viewBox="0 0 20 14" fill="none" xmlns="http://www.w3.org/2000/svg">
<path fill-rule="evenodd" clip-rule="evenodd" d="M19.9989 1.46504L13.6546 6.99943L20 12.5327V12.5251L19.9989 1.4738L19.9989 1.46504ZM19.3827 13.7299C19.1468 13.8995 18.8588 14 18.5507 14L1.44827 13.9989C1.1412 13.9989 0.855379 13.8995 0.619495 13.732L7.34541 7.8671L8.31231 8.71098C8.78302 9.12158 9.39821 9.32472 10.0102 9.32145C10.6212 9.31821 11.2364 9.11075 11.7092 8.698L12.6612 7.86818L19.3827 13.7299ZM0 12.5381L6.35081 6.99954L0 1.461V12.5381ZM0.619441 0.266883C0.855322 0.0983233 1.14115 0 1.44822 0H18.5496C18.8577 0 19.1456 0.100486 19.3815 0.270125L12.2446 6.49493L12.2329 6.50573L10.8665 7.69753C10.6328 7.90175 10.3193 8.0044 10.0048 8.00656C9.69136 8.00872 9.38215 7.90931 9.15371 7.7105L7.77032 6.50358L7.76394 6.49817L0.619441 0.266883Z" fill="#A9B5DB"/>
</svg>
