<svg width="16" height="16" viewBox="0 0 16 16" fill="none" xmlns="http://www.w3.org/2000/svg">
<path fill-rule="evenodd" clip-rule="evenodd" d="M0.0304867 3.22549C-0.0327069 2.32655 -0.059409 2.39331 0.599238 1.66257C2.35532 -0.283064 3.38523 -0.397878 4.12918 0.681746C4.1363 0.692427 4.14253 0.700437 4.15054 0.710228C6.81714 4.02295 6.66493 3.46768 4.51279 6.85422C4.41666 7.00553 4.41043 7.18442 4.49677 7.34196C5.63605 9.41843 6.58217 10.3646 8.65787 11.503C8.81541 11.5893 8.99432 11.584 9.14562 11.4869C12.5322 9.33483 11.977 9.18269 15.2898 11.8492C15.2995 11.8572 15.3084 11.8634 15.3182 11.8705C16.3979 12.6146 16.2831 13.6453 14.3374 15.4004C13.6067 16.059 13.6734 16.0332 12.7744 15.9691C7.10834 15.5686 0.431057 8.89168 0.0304867 3.22549Z" fill="#4E9A34"/>
</svg>
