<svg width="81" height="80" viewBox="0 0 81 80" fill="none" xmlns="http://www.w3.org/2000/svg">
<path d="M25.8552 49.8728C23.5218 49.8728 21.7392 48.9955 20.5072 47.2408C19.2752 45.4675 18.6592 42.9475 18.6592 39.6808C18.6592 36.3768 19.2752 33.8662 20.5072 32.1488C21.7392 30.4315 23.5218 29.5728 25.8552 29.5728C28.2072 29.5728 29.9898 30.4315 31.2032 32.1488C32.4352 33.8662 33.0512 36.3675 33.0512 39.6528C33.0512 42.9382 32.4352 45.4675 31.2032 47.2408C29.9712 48.9955 28.1885 49.8728 25.8552 49.8728ZM25.8552 46.9328C27.1245 46.9328 28.0578 46.3448 28.6552 45.1688C29.2712 43.9928 29.5792 42.1542 29.5792 39.6528C29.5792 37.1515 29.2712 35.3408 28.6552 34.2208C28.0578 33.0822 27.1245 32.5128 25.8552 32.5128C24.6045 32.5128 23.6712 33.0822 23.0552 34.2208C22.4392 35.3408 22.1312 37.1515 22.1312 39.6528C22.1312 42.1542 22.4392 43.9928 23.0552 45.1688C23.6712 46.3448 24.6045 46.9328 25.8552 46.9328ZM43.4562 49.3688C43.2136 49.7795 42.9149 50.0222 42.5602 50.0968C42.2242 50.1715 41.8976 50.1155 41.5802 49.9288C41.2816 49.7608 41.0762 49.5088 40.9642 49.1728C40.8522 48.8182 40.9176 48.4355 41.1602 48.0248L51.4922 30.1048C51.7349 29.6755 52.0242 29.4328 52.3602 29.3768C52.7149 29.3022 53.0416 29.3582 53.3402 29.5448C53.6389 29.7128 53.8442 29.9648 53.9562 30.3008C54.0682 30.6368 54.0122 31.0102 53.7882 31.4208L43.4562 49.3688ZM40.4602 41.6408C38.8922 41.6408 37.6696 41.0995 36.7922 40.0168C35.9149 38.9342 35.4762 37.4595 35.4762 35.5928C35.4762 33.7262 35.9149 32.2608 36.7922 31.1968C37.6696 30.1142 38.8922 29.5728 40.4602 29.5728C42.0282 29.5728 43.2509 30.1142 44.1282 31.1968C45.0056 32.2608 45.4442 33.7262 45.4442 35.5928C45.4442 37.4595 45.0056 38.9342 44.1282 40.0168C43.2509 41.0995 42.0282 41.6408 40.4602 41.6408ZM40.4602 39.2888C41.1322 39.2888 41.6549 38.9902 42.0282 38.3928C42.4016 37.7768 42.5882 36.8435 42.5882 35.5928C42.5882 34.3422 42.4016 33.4182 42.0282 32.8208C41.6549 32.2235 41.1322 31.9248 40.4602 31.9248C39.7882 31.9248 39.2656 32.2235 38.8922 32.8208C38.5189 33.3995 38.3322 34.3235 38.3322 35.5928C38.3322 36.8622 38.5189 37.7955 38.8922 38.3928C39.2656 38.9902 39.7882 39.2888 40.4602 39.2888ZM54.5162 49.8728C52.9482 49.8728 51.7256 49.3315 50.8482 48.2488C49.9709 47.1662 49.5322 45.6915 49.5322 43.8248C49.5322 41.9582 49.9709 40.4928 50.8482 39.4288C51.7256 38.3462 52.9482 37.8048 54.5162 37.8048C56.0842 37.8048 57.3069 38.3462 58.1842 39.4288C59.0616 40.4928 59.5002 41.9582 59.5002 43.8248C59.5002 45.6915 59.0616 47.1662 58.1842 48.2488C57.3069 49.3315 56.0842 49.8728 54.5162 49.8728ZM54.5162 47.5208C55.1882 47.5208 55.7109 47.2222 56.0842 46.6248C56.4576 46.0088 56.6442 45.0755 56.6442 43.8248C56.6442 42.5742 56.4576 41.6502 56.0842 41.0528C55.7109 40.4555 55.1882 40.1568 54.5162 40.1568C53.8442 40.1568 53.3216 40.4555 52.9482 41.0528C52.5749 41.6315 52.3882 42.5555 52.3882 43.8248C52.3882 45.0942 52.5749 46.0275 52.9482 46.6248C53.3216 47.2222 53.8442 47.5208 54.5162 47.5208Z" fill="white"/>
<path d="M74.6951 42.4659L77.6947 48.2061C78.3467 49.5107 77.9555 51.0763 76.7817 51.7286L71.3043 55.251C69.8697 56.1642 68.9568 57.7297 68.8264 59.4257L68.4351 65.9487C68.4351 67.3838 67.2614 68.5579 65.8268 68.5579H65.6964L59.4364 68.9493C57.741 69.0798 56.176 69.993 55.1327 71.428L51.7418 76.6465C50.9593 77.8206 49.3944 78.212 48.2206 77.5597L42.4823 74.5591C40.9173 73.7763 39.0915 73.7763 37.6569 74.5591L31.7882 77.6901C30.484 78.3424 28.919 77.9511 28.2669 76.6465L24.7457 71.1671C23.8328 69.7321 22.2678 68.8188 20.5724 68.6884L14.182 68.5579H14.0516C12.617 68.5579 11.4433 67.3838 11.4433 65.9487L11.052 59.4257C10.9216 57.7297 10.0087 56.1642 8.5741 55.251L3.22704 51.7286C2.0533 50.9458 1.66205 49.3803 2.31413 48.2061L5.3137 42.4659C6.0962 40.9004 6.0962 39.0739 5.3137 37.5084L2.31413 31.7682C1.66205 30.4636 2.0533 29.0285 3.22704 28.2457L8.5741 24.7233C10.0087 23.8101 10.9216 22.2446 11.052 20.5486L11.4433 14.156C11.4433 12.721 12.617 11.5468 14.0516 11.5468L20.442 11.2859C22.1374 11.1555 23.7024 10.2422 24.7457 8.80717L28.2669 3.32784C28.7886 2.54508 29.5711 2.02324 30.6144 2.02324C31.0057 2.02324 31.5273 2.1537 31.9186 2.28416L37.6569 5.28475C39.2219 6.06751 41.0477 6.06751 42.4823 5.28475L48.2206 2.28416C49.5248 1.63186 50.9593 2.1537 51.7418 3.32784L55.2631 8.67671C56.176 10.1118 57.741 11.025 59.4364 11.1555L65.9572 11.5468C67.3918 11.5468 68.5655 12.721 68.5655 14.156L68.9568 20.5486C69.0872 22.2446 69.8697 23.8101 71.3043 24.7233L76.7817 28.2457C77.9555 29.0285 78.3467 30.594 77.6947 31.7682L74.6951 37.5084C73.9126 39.0739 73.9126 40.9004 74.6951 42.4659Z" stroke="white" stroke-width="4" stroke-miterlimit="10"/>
</svg>
