<svg width="80" height="74" viewBox="0 0 80 74" fill="none" xmlns="http://www.w3.org/2000/svg">
<path d="M29.9282 13.422C33.3979 13.422 37.329 14.5158 41.1216 16.657C40.0604 16.8146 38.9992 16.8887 37.9195 16.8887C37.2828 16.8887 36.6461 16.8702 35.9909 16.8146C37.2274 17.1297 38.5932 17.2502 39.9404 17.2502C40.6694 17.2502 41.3892 17.2132 42.0998 17.1761C44.6282 16.8239 46.1693 16.1379 47.535 15.554C48.67 15.0441 49.6574 14.6178 51.0231 14.4416C51.5583 14.3675 52.1212 14.3211 52.6841 14.3211C58.064 14.3211 63.4531 18.0011 64.0898 23.2939C65.151 29.1521 62.7241 33.2677 59.9096 38.0506C57.3442 42.398 54.4374 47.3385 54.0868 54.374C53.9299 58.0817 54.1606 64.1531 50.2757 64.1531C49.8512 64.1531 49.3898 64.079 48.873 63.9399C47.7011 63.5692 47.1382 62.7442 46.1969 61.3723C44.3698 58.7862 42.3858 55.6531 38.99 53.9476C37.7996 53.4748 36.5446 53.2616 35.2711 53.2616C35.0404 53.2616 34.8097 53.2616 34.5606 53.2802C35.4465 53.3543 36.3323 53.5305 37.1629 53.8271C36.6461 55.4121 36.277 57.2382 36.0832 58.8232C35.9079 60.121 35.7787 60.983 35.142 61.9563C34.5421 63.013 33.8685 63.4023 33.158 63.4023C32.1983 63.4023 31.1924 62.6608 30.3804 61.8914C26.5231 58.3227 24.5207 53.3451 22.9427 48.5065C19.9529 39.5708 14.3516 21.922 22.592 15.7301C24.5022 14.2192 27.0583 13.4776 29.9097 13.4776M29.9282 9.50108C26.1355 9.50108 22.7766 10.5578 20.2389 12.5785C9.56229 20.5687 16.3817 40.989 19.2977 49.7115C21.051 55.0414 23.2841 60.5473 27.7966 64.7371C29.5683 66.4241 31.3401 67.2676 33.1764 67.2676C34.4314 67.2676 36.7753 66.832 38.4363 63.9399C39.479 62.29 39.6913 60.8254 39.9035 59.3979C40.8817 60.4361 41.7306 61.6689 42.5796 62.8647L43.0964 63.5877C44.1576 65.1542 45.2926 66.8227 47.738 67.6013C48.6792 67.8794 49.5098 67.9906 50.3033 67.9906C57.5657 67.9906 57.8148 59.2496 57.9348 55.5326C57.9348 55.1619 57.9533 54.7911 57.9717 54.4574C58.2762 48.423 60.8047 44.1313 63.25 39.9787C66.1753 35.001 69.202 29.8658 67.9286 22.6172C67.0243 15.7208 60.3525 10.3353 52.7118 10.3353C51.9644 10.3353 51.2261 10.3909 50.4971 10.4929C48.6516 10.7432 47.3412 11.3364 46.0678 11.8833C45.0435 12.3375 44.0838 12.7453 42.7365 13.042C38.5009 10.7061 34.09 9.49181 29.9651 9.49181L29.9467 9.51035L29.9282 9.50108Z" fill="white"/>
<path d="M24.945 33.4994C24.945 31.1913 26.7998 29.3282 29.0976 29.3282C26.7998 29.3282 24.945 27.4651 24.945 25.157C24.945 27.4651 23.0902 29.3282 20.7925 29.3282C23.0902 29.3282 24.945 31.1913 24.945 33.4994Z" fill="white"/>
<path d="M32.3274 42.7409C32.3274 38.9034 35.4188 35.7982 39.2391 35.7982C35.4188 35.7982 32.3274 32.693 32.3274 28.8555C32.3274 32.693 29.2361 35.7982 25.4158 35.7982C29.2361 35.7982 32.3274 38.9034 32.3274 42.7409Z" fill="white"/>
</svg>
