<svg width="61" height="77" viewBox="0 0 61 77" fill="none" xmlns="http://www.w3.org/2000/svg">
<path d="M29.791 76.797C29.8517 76.8306 29.9164 76.8571 29.9843 76.8723H30.1016C30.227 76.9284 30.363 76.9701 30.4997 76.9886C30.617 77.0038 30.7383 77.0038 30.8597 76.9886H30.977H30.9729C31.0409 76.9733 31.1097 76.9469 31.1703 76.9132C60.0406 61.2118 62.2443 35.8781 60.5947 13.1517C60.5527 12.7725 60.3561 12.4261 60.0527 12.1896C59.738 11.9491 59.3359 11.8513 58.9452 11.9226C48.1789 13.8468 39.2483 10.1524 31.6072 0.580266V0.576257C31.5651 0.538575 31.5239 0.504902 31.4818 0.471228C31.4478 0.429537 31.4139 0.384639 31.3718 0.346957H31.2658C31.1865 0.294042 31.1024 0.249144 31.0158 0.211461L30.7618 0.0198433C30.5871 -0.00661443 30.4131 -0.00661443 30.2384 0.0198433L29.9843 0.0952077C29.897 0.13289 29.8136 0.177788 29.7344 0.230703H29.6284C29.5863 0.272394 29.5523 0.313284 29.5184 0.358181C29.4763 0.388648 29.435 0.425528 29.393 0.463211C21.7632 10.1042 12.8132 13.8051 2.05499 11.8737C1.66424 11.8064 1.26216 11.9042 0.947458 12.1447C0.64408 12.378 0.446682 12.7236 0.405423 13.1068C-1.24414 35.8781 0.958785 61.2118 29.7918 76.797H29.7902H29.791ZM3.11317 14.8771C13.7921 16.3763 22.734 12.6145 30.5005 3.58041C38.267 12.6153 47.2089 16.317 57.8878 14.8739C59.2453 36.1378 56.7123 59.4687 30.5005 73.986C4.28866 59.4679 1.75566 36.137 3.11317 14.8763V14.8771Z" fill="white"/>
<path d="M23.496 24.4186C25.6253 24.4186 28.0378 25.0917 30.3653 26.4094C29.714 26.5064 29.0628 26.5521 28.4002 26.5521C28.0095 26.5521 27.6187 26.5406 27.2166 26.5064C27.9755 26.7004 28.8136 26.7745 29.6404 26.7745C30.0878 26.7745 30.5295 26.7517 30.9656 26.7289C32.5173 26.5121 33.463 26.09 34.3011 25.7306C34.9977 25.4169 35.6036 25.1545 36.4418 25.0461C36.7702 25.0005 37.1157 24.972 37.4611 24.972C40.7627 24.972 44.0699 27.2366 44.4606 30.4937C45.1119 34.0989 43.6225 36.6316 41.8953 39.575C40.3209 42.2504 38.5371 45.2908 38.3219 49.6203C38.2256 51.9021 38.3672 55.6384 35.983 55.6384C35.7225 55.6384 35.4394 55.5928 35.1223 55.5072C34.4031 55.279 34.0576 54.7714 33.48 53.9271C32.3587 52.3356 31.1411 50.4075 29.0571 49.3579C28.3266 49.067 27.5564 48.9358 26.7749 48.9358C26.6333 48.9358 26.4918 48.9358 26.3389 48.9472C26.8825 48.9929 27.4262 49.1013 27.9358 49.2838C27.6187 50.2592 27.3922 51.383 27.2733 52.3584C27.1657 53.157 27.0864 53.6875 26.6956 54.2865C26.3275 54.9368 25.9141 55.1764 25.4781 55.1764C24.8891 55.1764 24.2718 54.72 23.7735 54.2466C21.4063 52.0504 20.1775 48.9872 19.2091 46.0095C17.3742 40.5105 13.9368 29.6495 18.9939 25.839C20.1661 24.9092 21.7348 24.4529 23.4847 24.4529M23.496 22.0057C21.1685 22.0057 19.1071 22.656 17.5498 23.8995C10.9976 28.8167 15.1826 41.3833 16.9722 46.7511C18.0481 50.0311 19.4186 53.4194 22.1878 55.9978C23.2751 57.036 24.3625 57.5551 25.4894 57.5551C26.2596 57.5551 27.698 57.287 28.7173 55.5072C29.3573 54.4918 29.4875 53.5906 29.6178 52.7121C30.2181 53.351 30.7391 54.1096 31.2601 54.8455L31.5772 55.2904C32.2284 56.2545 32.925 57.2813 34.4257 57.7604C35.0033 57.9315 35.513 58 36 58C40.4569 58 40.6098 52.6208 40.6834 50.3334C40.6834 50.1052 40.6947 49.877 40.706 49.6717C40.8929 45.9582 42.4446 43.3171 43.9453 40.7615C45.7405 37.6983 47.598 34.5381 46.8165 30.0773C46.2615 25.8333 42.1671 22.5191 37.4781 22.5191C37.0194 22.5191 36.5663 22.5533 36.119 22.6161C34.9864 22.7701 34.1822 23.1352 33.4007 23.4717C32.7721 23.7512 32.1831 24.0022 31.3563 24.1848C28.757 22.7473 26.05 22 23.5187 22L23.5073 22.0114L23.496 22.0057Z" fill="white"/>
</svg>
