<svg width="59" height="53" viewBox="0 0 59 53" fill="none" xmlns="http://www.w3.org/2000/svg">
<g clip-path="url(#clip0_3_432)">
<path d="M52.4652 52.9993H6.55247C4.21092 52.9958 2.04954 51.7405 0.878761 49.7103C-0.292014 47.6766 -0.292015 45.1728 0.875283 43.1391L23.8219 3.28905C24.9927 1.25188 27.1576 0 29.4991 0C31.8407 0 34.0055 1.25188 35.1763 3.28905L58.1396 43.1663C59.2937 45.2 59.2875 47.694 58.1167 49.7179C56.9494 51.7418 54.7971 52.9902 52.4659 53L52.4652 52.9993ZM29.4991 4.18384C28.6449 4.17059 27.8525 4.63159 27.4386 5.38062L4.45578 45.2579C4.04466 45.9965 4.05439 46.8989 4.48222 47.6312C4.90935 48.36 5.68847 48.8113 6.53299 48.8148H52.4458C53.2938 48.8182 54.0791 48.3698 54.5132 47.6375C54.9438 46.9052 54.9536 46 54.5424 45.2579L31.5603 5.38062C31.1464 4.63229 30.3541 4.17129 29.4998 4.18384H29.4991Z" fill="white"/>
<path d="M29.4991 34.3125C28.3478 34.3125 27.4121 33.3745 27.4121 32.2203V17.8492C27.4121 16.6949 28.3478 15.7569 29.4991 15.7569C30.6504 15.7569 31.586 16.6949 31.586 17.8492V32.2203C31.586 32.7726 31.3676 33.3055 30.9759 33.6981C30.5843 34.0907 30.0528 34.3125 29.4991 34.3125Z" fill="white"/>
<path d="M29.499 43.3916C28.9446 43.3881 28.4131 43.1663 28.0221 42.7737C27.9241 42.6753 27.8364 42.5707 27.7648 42.4536C27.6868 42.3427 27.6214 42.2213 27.5721 42.0937C27.5199 41.9661 27.4809 41.8356 27.4545 41.7017C27.4413 41.5678 27.4413 41.4339 27.4545 41.2993C27.4545 40.7435 27.6729 40.2141 28.0646 39.8187C28.1592 39.7204 28.267 39.6325 28.3811 39.5607C29.2715 38.9692 30.4646 39.1485 31.1428 39.9756C31.8246 40.8028 31.7689 42.0093 31.019 42.7737C30.9209 42.8685 30.8138 42.9564 30.7025 43.0317C30.4708 43.1824 30.2169 43.2898 29.9491 43.3491C29.8023 43.3784 29.6493 43.3916 29.499 43.3916Z" fill="white"/>
</g>
<defs>
<clipPath id="clip0_3_432">
<rect width="59" height="53" fill="white"/>
</clipPath>
</defs>
</svg>
