<svg width="67" height="55" viewBox="0 0 67 55" fill="none" xmlns="http://www.w3.org/2000/svg">
<g clip-path="url(#clip0_3_476)">
<path d="M21.2043 21.3472C25.3427 19.7569 28.2892 15.7371 28.2892 11.0398C28.2892 4.95111 23.3462 0 17.2689 0C11.1916 0 6.24854 4.95111 6.24854 11.0384C6.24854 15.7357 9.19506 19.7554 13.3334 21.3457C14.5987 21.0487 15.9158 20.8916 17.2689 20.8916C18.6219 20.8916 19.9405 21.0487 21.2043 21.3457V21.3472ZM9.12741 11.0384C9.12741 6.5414 12.7793 2.88358 17.2689 2.88358C21.7585 2.88358 25.4103 6.5414 25.4103 11.0384C25.4103 15.5353 21.7585 19.1931 17.2689 19.1931C12.7793 19.1931 9.12741 15.5353 9.12741 11.0384Z" fill="white"/>
<path d="M28.865 25.3827C26.7289 23.4406 24.1062 22.0262 21.2043 21.3457C19.9808 21.8157 18.6551 22.0767 17.2689 22.0767C15.8827 22.0767 14.557 21.8172 13.3335 21.3457C5.70161 23.135 0 30.008 0 38.1902H2.87887C2.87887 30.243 9.33475 23.7766 17.2689 23.7766C20.8286 23.7766 24.0904 25.0785 26.6051 27.2311C27.2528 26.5001 28.0158 25.8758 28.8636 25.3827H28.865Z" fill="white"/>
<path d="M21.2043 21.3472C19.9391 21.0501 18.622 20.893 17.2689 20.893C15.9158 20.893 14.5973 21.0501 13.3335 21.3472C14.557 21.8172 15.8827 22.0781 17.2689 22.0781C18.6551 22.0781 19.9808 21.8186 21.2043 21.3472Z" fill="white"/>
<path d="M53.6664 21.3472C57.8048 19.7569 60.7513 15.7371 60.7513 11.0398C60.7513 4.95254 55.8083 0.00143433 49.731 0.00143433C43.6537 0.00143433 38.7107 4.95254 38.7107 11.0398C38.7107 15.7371 41.6572 19.7569 45.7956 21.3472C47.0609 21.0501 48.3779 20.893 49.731 20.893C51.0841 20.893 52.4026 21.0501 53.6664 21.3472ZM41.5896 11.0383C41.5896 6.5414 45.2414 2.88357 49.731 2.88357C54.2206 2.88357 57.8725 6.5414 57.8725 11.0383C57.8725 15.5353 54.2206 19.1931 49.731 19.1931C45.2414 19.1931 41.5896 15.5353 41.5896 11.0383Z" fill="white"/>
<path d="M53.6666 21.3472C52.4431 21.8172 51.1173 22.0781 49.7312 22.0781C48.345 22.0781 47.0193 21.8186 45.7957 21.3472C42.8636 22.0349 40.2165 23.4724 38.0688 25.4462C38.908 25.9479 39.658 26.5823 40.2942 27.3176C42.8219 25.1131 46.1239 23.7766 49.7312 23.7766C57.6653 23.7766 64.1212 30.243 64.1212 38.1902H67.0001C67.0001 30.008 61.2985 23.135 53.6666 21.3457V21.3472Z" fill="white"/>
<path d="M53.6665 21.3472C52.4012 21.0501 51.0841 20.893 49.7311 20.893C48.378 20.893 47.0595 21.0501 45.7957 21.3472C47.0192 21.8172 48.3449 22.0781 49.7311 22.0781C51.1172 22.0781 52.443 21.8186 53.6665 21.3472Z" fill="white"/>
<path d="M30.8961 27.5771C31.6662 27.234 32.5183 27.0422 33.4136 27.0422C34.3593 27.0422 35.2561 27.2556 36.0608 27.6348C36.6668 26.849 37.339 26.1152 38.0702 25.4447C36.7071 24.6287 35.115 24.1586 33.4151 24.1586C31.7151 24.1586 30.2066 24.6056 28.8665 25.3827C29.6049 26.0532 30.2843 26.7885 30.8975 27.5757L30.8961 27.5771Z" fill="white"/>
<path d="M38.3093 29.4342C39.1413 30.4939 39.6379 31.829 39.6379 33.278C39.6379 36.7166 36.8454 39.5137 33.4123 39.5137C29.9792 39.5137 27.1867 36.7166 27.1867 33.278C27.1867 31.7771 27.7193 30.3987 28.6046 29.3217C28.0087 28.5604 27.3393 27.8597 26.6052 27.2325C25.1773 28.843 24.3079 30.961 24.3079 33.2794C24.3079 36.8637 26.3835 39.9708 29.3948 41.4601C30.6687 41.0795 32.0175 40.8748 33.4123 40.8748C34.8071 40.8748 36.1559 41.0795 37.4298 41.4601C40.4396 39.9708 42.5167 36.8637 42.5167 33.2794C42.5167 31.0014 41.6775 28.918 40.2942 27.3191C39.5644 27.9563 38.8994 28.6657 38.3093 29.4356V29.4342Z" fill="white"/>
<path d="M28.6044 29.3217C29.2176 28.5749 30.0021 27.9751 30.8945 27.5771C30.2813 26.7885 29.6019 26.0546 28.8635 25.3842C28.0142 25.8773 27.2513 26.5016 26.605 27.2325C27.3391 27.8612 28.0084 28.5604 28.6044 29.3217Z" fill="white"/>
<path d="M38.0688 25.4447C37.339 26.1152 36.6668 26.849 36.0593 27.6348C36.9431 28.0515 37.7118 28.6715 38.3092 29.4327C38.8993 28.6628 39.5644 27.9535 40.2941 27.3162C39.6579 26.5794 38.9065 25.9465 38.0688 25.4447Z" fill="white"/>
<path d="M29.3948 41.4587C23.5694 43.196 19.3101 48.6085 19.3101 55H22.1889C22.1889 48.8003 27.2241 43.7569 33.4137 43.7569C39.6032 43.7569 44.6384 48.8003 44.6384 55H47.5173C47.5173 48.6085 43.2565 43.196 37.4326 41.4587C36.2206 42.0585 34.856 42.3973 33.4151 42.3973C31.9742 42.3973 30.6096 42.0585 29.3976 41.4587H29.3948Z" fill="white"/>
<path d="M29.3948 41.4587C30.6068 42.0585 31.9714 42.3973 33.4122 42.3973C34.8531 42.3973 36.2177 42.0585 37.4297 41.4587C36.1558 41.0781 34.8071 40.8733 33.4122 40.8733C32.0174 40.8733 30.6687 41.0781 29.3948 41.4587Z" fill="white"/>
</g>
<defs>
<clipPath id="clip0_3_476">
<rect width="67" height="55" fill="white"/>
</clipPath>
</defs>
</svg>
