<svg width="295" height="84" viewBox="0 0 295 84" fill="none" xmlns="http://www.w3.org/2000/svg">
<g clip-path="url(#clip0_1_291)">
<path d="M0 23.5679H3.47432V35.2578H17.9456V23.5679H21.4502V49.8116H17.9456V38.5285H3.47432V49.8116H0V23.5679Z" fill="white"/>
<path d="M40.695 31.1421C42.1753 31.9872 43.3385 33.1765 44.1693 34.6788C45.0001 36.1968 45.423 37.9182 45.423 39.8744C45.423 41.8305 45.0001 43.5676 44.1693 45.0855C43.3385 46.6035 42.1753 47.7929 40.695 48.6536C39.2146 49.4986 37.5227 49.9211 35.6043 49.9211C33.6859 49.9211 31.9638 49.4986 30.4835 48.6536C29.0031 47.8085 27.84 46.6192 27.0091 45.1168C26.1783 43.5989 25.7554 41.8618 25.7554 39.89C25.7554 37.9182 26.1783 36.2125 27.0091 34.6945C27.84 33.1765 29.0031 32.0028 30.4835 31.1578C31.9638 30.3127 33.6708 29.8902 35.6043 29.8902C37.5378 29.8902 39.1995 30.3127 40.695 31.1578V31.1421ZM32.2659 33.8025C31.2841 34.3971 30.5288 35.2266 29.985 36.2907C29.4412 37.3548 29.1693 38.5598 29.1693 39.9057C29.1693 41.2515 29.4412 42.5034 29.985 43.5832C30.5288 44.663 31.2841 45.4924 32.2659 46.0714C33.2478 46.6505 34.3656 46.9478 35.6194 46.9478C36.8732 46.9478 37.9608 46.6505 38.9276 46.0714C39.9095 45.4768 40.6647 44.6474 41.2085 43.5832C41.7524 42.5034 42.0243 41.2828 42.0243 39.9057C42.0243 38.5285 41.7524 37.3548 41.2085 36.2907C40.6647 35.2266 39.9095 34.3971 38.9276 33.8025C37.9457 33.2078 36.843 32.8948 35.6194 32.8948C34.3959 32.8948 33.2478 33.1922 32.2659 33.8025Z" fill="white"/>
<path d="M57.3565 32.9731C56.1028 32.9731 54.9849 33.2548 54.0031 33.8338C53.0212 34.4128 52.2659 35.2266 51.707 36.275C51.1481 37.3235 50.8762 38.5442 50.8762 39.9057C50.8762 41.2671 51.1481 42.4878 51.6919 43.5363C52.2357 44.5848 52.9759 45.3985 53.9426 45.9932C54.8943 46.5879 55.9819 46.8696 57.2206 46.8696C58.4593 46.8696 59.562 46.6505 60.5439 46.2279C61.5257 45.8054 62.3565 45.1951 63.0061 44.397L64.9245 46.4157C64.0484 47.5425 62.9457 48.4032 61.6164 48.9978C60.2871 49.5925 58.7614 49.8898 57.0695 49.8898C55.2115 49.8898 53.565 49.4673 52.1149 48.6223C50.6647 47.7772 49.5469 46.5879 48.7312 45.0855C47.9155 43.5676 47.5227 41.8462 47.5227 39.89C47.5227 37.9339 47.9306 36.1968 48.7312 34.6788C49.5469 33.1609 50.6647 31.9715 52.1149 31.1108C53.565 30.2658 55.2115 29.8432 57.0695 29.8432C58.6858 29.8432 60.136 30.0936 61.4351 30.61C62.7191 31.1265 63.8067 31.862 64.6677 32.8479L62.8248 35.2422C61.2991 33.7242 59.4865 32.9574 57.3565 32.9574V32.9731Z" fill="white"/>
<path d="M82.4018 49.8116L76.284 40.1717L72.5529 44.1779V49.796H69.1843V21.9873H72.5529V39.7179L81.8127 29.9684H85.7553L78.6254 37.6522L86.4351 49.796H82.3867L82.4018 49.8116Z" fill="white"/>
<path d="M85.9214 29.9841H89.4259L94.7885 46.3688L100.075 29.9841H103.58L108.897 46.3688L114.184 29.9841H117.659L110.604 49.8116H107.1L101.813 34.2094L96.5256 49.8116H93.0211L85.9214 29.9841Z" fill="white"/>
<path d="M133.837 32.5818C135.362 34.3971 136.118 36.9167 136.118 40.1404C136.118 40.6412 136.118 41.0168 136.088 41.2671H120.967C121.239 43.0355 121.949 44.4596 123.127 45.5081C124.29 46.5566 125.74 47.0886 127.447 47.0886C128.58 47.0886 129.637 46.8695 130.619 46.447C131.601 46.0245 132.447 45.4298 133.172 44.6474L135.015 46.6348C134.078 47.6833 132.946 48.4971 131.616 49.0761C130.287 49.6551 128.822 49.9368 127.205 49.9368C125.317 49.9368 123.656 49.5143 122.19 48.6849C120.725 47.8398 119.592 46.6661 118.791 45.1481C117.991 43.6302 117.583 41.8931 117.583 39.937C117.583 37.9808 117.991 36.2594 118.791 34.7414C119.607 33.2235 120.725 32.0341 122.175 31.1734C123.625 30.3127 125.272 29.8745 127.13 29.8745C130.091 29.8745 132.341 30.7822 133.867 32.5975L133.837 32.5818ZM133.066 38.5598C132.976 36.7602 132.387 35.3361 131.329 34.3032C130.272 33.2704 128.867 32.754 127.13 32.754C125.393 32.754 124.033 33.286 122.915 34.3345C121.798 35.383 121.118 36.7915 120.906 38.5755H133.066V38.5598Z" fill="white"/>
<path d="M140.166 21.9873H143.535V49.8116H140.166V21.9873Z" fill="white"/>
<path d="M149.758 21.9873H153.127V49.8116H149.758V21.9873Z" fill="white"/>
<path d="M185.242 25.2737C187.236 26.4161 188.792 27.981 189.925 29.9841C191.057 31.9872 191.631 34.225 191.631 36.6976C191.631 39.1701 191.057 41.408 189.909 43.4111C188.761 45.4142 187.19 46.9791 185.181 48.1215C183.172 49.2639 180.937 49.8273 178.444 49.8273H168.233V23.5679H178.55C181.012 23.5679 183.233 24.1313 185.227 25.2737H185.242ZM183.429 45.2733C184.864 44.4283 185.997 43.2546 186.828 41.7523C187.659 40.2499 188.082 38.5755 188.082 36.7289C188.082 34.8823 187.659 33.1609 186.813 31.6742C185.967 30.1719 184.819 28.9982 183.354 28.1375C181.888 27.2768 180.272 26.8386 178.489 26.8386H171.722V46.5566H178.641C180.408 46.5566 181.994 46.134 183.429 45.289V45.2733Z" fill="white"/>
<path d="M209.94 32.5818C211.465 34.3971 212.221 36.9167 212.221 40.1404C212.221 40.6412 212.221 41.0168 212.19 41.2671H197.069C197.341 43.0355 198.051 44.4596 199.23 45.5081C200.393 46.5566 201.843 47.0886 203.55 47.0886C204.683 47.0886 205.74 46.8695 206.722 46.447C207.704 46.0245 208.55 45.4298 209.275 44.6474L211.118 46.6348C210.181 47.6833 209.048 48.4971 207.719 49.0761C206.39 49.6551 204.924 49.9368 203.308 49.9368C201.42 49.9368 199.758 49.5143 198.293 48.6849C196.828 47.8398 195.695 46.6661 194.894 45.1481C194.094 43.6302 193.686 41.8931 193.686 39.937C193.686 37.9808 194.094 36.2594 194.894 34.7414C195.71 33.2235 196.828 32.0341 198.278 31.1734C199.728 30.3127 201.375 29.8745 203.233 29.8745C206.193 29.8745 208.444 30.7822 209.97 32.5975L209.94 32.5818ZM209.184 38.5598C209.094 36.7602 208.505 35.3361 207.447 34.3032C206.39 33.2704 204.985 32.754 203.248 32.754C201.511 32.754 200.151 33.286 199.033 34.3345C197.915 35.383 197.236 36.7915 197.024 38.5755H209.184V38.5598Z" fill="white"/>
<path d="M232.009 31.9089C233.293 33.2704 233.928 35.1483 233.928 37.5583V49.8116H230.559V38.4816C230.559 36.8071 230.106 35.5082 229.199 34.5693C228.293 33.6303 227.039 33.1609 225.453 33.1609C223.746 33.1922 222.341 33.7555 221.269 34.8666C220.196 35.9777 219.592 37.4174 219.441 39.2014V49.8116H216.073V29.9841H219.441V34.1781C220.725 31.3612 223.142 29.9215 226.722 29.8589C228.973 29.8589 230.725 30.5474 232.009 31.9089Z" fill="white"/>
<path d="M282.84 49.8116V47.0417C281.42 48.9978 279.184 49.9681 276.148 49.9681C274.819 49.9681 273.656 49.7021 272.659 49.1856C271.662 48.6536 270.891 47.9337 270.347 47.0104C269.804 46.0871 269.532 45.0542 269.532 43.8962C269.532 42.1278 270.166 40.7194 271.435 39.6709C272.704 38.6381 274.471 38.106 276.737 38.0747H282.81V37.1358C282.81 35.743 282.387 34.6632 281.556 33.8964C280.725 33.1296 279.517 32.754 277.915 32.754C275.982 32.754 274.018 33.4738 272.009 34.8979L270.604 32.5036C271.979 31.5803 273.248 30.9074 274.426 30.5005C275.589 30.0936 276.994 29.8745 278.61 29.8745C280.997 29.8745 282.84 30.4848 284.154 31.6898C285.453 32.8948 286.118 34.6006 286.148 36.7758L286.178 49.8272H282.855L282.84 49.8116ZM280.831 45.8993C281.934 45.1168 282.583 44.0683 282.81 42.7695V40.782H277.205C275.68 40.782 274.562 41.0168 273.822 41.5019C273.082 41.9714 272.719 42.7225 272.719 43.7554C272.719 44.7882 273.097 45.5863 273.837 46.1966C274.577 46.7913 275.589 47.1043 276.843 47.1043C278.414 47.1043 279.743 46.7131 280.846 45.9306L280.831 45.8993Z" fill="white"/>
<path d="M291.631 21.9873H295V49.8116H291.631V21.9873Z" fill="white"/>
<path d="M234.728 4.64799C237.402 0.751344 241.088 0.454009 244.184 1.18952C246.314 1.94068 247.795 3.74034 251.586 6.54155C257.598 11.0016 260.74 5.88428 260.74 5.88428C260.74 5.88428 256.526 9.06107 251.239 3.86553C252.417 3.99073 253.625 3.78729 254.683 3.30216C254.834 3.22392 254.97 3.16132 255.106 3.08307C257.976 1.37731 264.834 -1.59604 269.109 4.64799C273.263 10.7042 276.042 22.3159 258.958 24.2564C258.882 26.1656 258.792 28.0435 258.686 29.8432C253.354 28.2626 248.822 27.6054 247.417 28.2C249.064 28.5756 250.937 29.0764 252.885 29.718C258.837 31.6585 263.263 34.0215 262.795 34.9761C262.538 35.5082 260.816 35.5082 258.323 35.0544C258.202 36.4785 258.082 37.8712 257.946 39.2014C253.414 37.8869 249.517 37.3235 247.946 37.746C249.396 38.0747 251.042 38.5285 252.764 39.0919C258.036 40.8133 261.979 42.8946 261.571 43.7084C261.344 44.1779 259.743 44.1466 257.432 43.7084C257.236 45.1951 257.039 46.6035 256.828 47.918C253.202 47.0104 250.212 46.713 248.973 47.1512C250.151 47.4329 251.435 47.7928 252.78 48.231C257.644 49.8272 261.254 51.7834 260.846 52.6128C260.574 53.1605 258.625 53.0822 255.952 52.5032C254.909 57.0415 253.671 59.6706 252.357 59.6706C250.831 59.6706 249.411 56.1182 248.263 50.1402C245.015 48.8257 242.9 47.4955 243.218 46.8539C243.474 46.3374 245.227 46.3844 247.704 46.8695C247.402 44.8977 247.13 42.7538 246.873 40.4377C243.988 39.2014 242.19 38.0434 242.477 37.4644C242.704 36.9949 244.29 37.0262 246.571 37.4644C246.39 35.4926 246.239 33.4269 246.088 31.2829C242.9 29.8901 240.922 28.5913 241.254 27.9183C241.526 27.3706 243.308 27.4019 245.891 27.8714C245.831 26.7134 245.77 25.524 245.725 24.319C227.704 22.6759 230.499 10.7825 234.728 4.61669V4.64799Z" fill="#8093CA"/>
<path d="M95.8309 76.9786C94.4865 76.5091 93.4442 75.9145 92.6738 75.1789L93.6859 72.9724C94.411 73.6453 95.3475 74.2087 96.4956 74.6312C97.6436 75.0537 98.8068 75.2728 100.015 75.2728C101.601 75.2728 102.78 74.9912 103.565 74.4434C104.351 73.8801 104.743 73.1445 104.743 72.2212C104.743 71.5483 104.532 70.985 104.094 70.5624C103.656 70.1399 103.142 69.8113 102.508 69.5922C101.873 69.3574 100.997 69.1071 99.8339 68.8254C98.3989 68.4654 97.2358 68.1055 96.3445 67.7456C95.4533 67.3856 94.698 66.8379 94.0787 66.0868C93.4593 65.3356 93.1421 64.334 93.1421 63.0665C93.1421 62.0023 93.414 61.0477 93.9427 60.2027C94.4865 59.3576 95.3022 58.669 96.3898 58.1683C97.4775 57.6518 98.837 57.4015 100.468 57.4015C101.601 57.4015 102.704 57.5579 103.807 57.8553C104.894 58.1526 105.846 58.5908 106.616 59.1542L105.71 61.4233C104.909 60.8912 104.048 60.5 103.142 60.2183C102.236 59.9523 101.329 59.8114 100.468 59.8114C98.9125 59.8114 97.7494 60.1088 96.979 60.6878C96.2086 61.2668 95.8158 62.0336 95.8158 62.9569C95.8158 63.6298 96.0273 64.1932 96.4654 64.6157C96.9034 65.0383 97.4472 65.3669 98.0968 65.6016C98.7463 65.8364 99.6225 66.0868 100.74 66.3528C102.175 66.7127 103.338 67.0727 104.215 67.4326C105.091 67.7925 105.846 68.3402 106.465 69.0758C107.085 69.8113 107.402 70.7972 107.402 72.0491C107.402 73.082 107.13 74.0366 106.586 74.8973C106.042 75.758 105.212 76.4309 104.094 76.9317C102.976 77.4324 101.616 77.6828 99.985 77.6828C98.55 77.6828 97.1602 77.4481 95.8158 76.9942L95.8309 76.9786Z" fill="#8093CA"/>
<path d="M125.634 62.4249V77.4481H123.142V75.1789C122.613 75.9614 121.918 76.5561 121.042 76.9786C120.181 77.4011 119.23 77.6202 118.217 77.6202C116.284 77.6202 114.758 77.0725 113.656 75.9614C112.538 74.8503 111.994 73.2228 111.994 71.0789V62.4405H114.622V70.7659C114.622 72.2212 114.955 73.3167 115.634 74.0678C116.314 74.819 117.281 75.1946 118.535 75.1946C119.924 75.1946 121.012 74.7564 121.813 73.8957C122.613 73.0194 123.021 71.7987 123.021 70.2181V62.4561H125.649L125.634 62.4249Z" fill="#8093CA"/>
<path d="M136.269 62.9726C137.16 62.5187 138.248 62.2997 139.517 62.2997V64.9287C139.366 64.9131 139.169 64.8974 138.912 64.8974C137.493 64.8974 136.375 65.3356 135.559 66.212C134.743 67.0883 134.335 68.3403 134.335 69.9678V77.4481H131.707V62.4249H134.23V64.9444C134.683 64.0837 135.363 63.4108 136.254 62.9569L136.269 62.9726Z" fill="#8093CA"/>
<path d="M157.583 62.4248V75.398C157.583 78.0271 156.949 79.9676 155.695 81.2195C154.441 82.4715 152.553 83.0974 150.06 83.0974C148.686 83.0974 147.387 82.9096 146.148 82.5184C144.909 82.1272 143.912 81.5795 143.142 80.8596L144.396 78.7626C145.076 79.3729 145.906 79.8424 146.903 80.2023C147.9 80.5466 148.928 80.7188 149.985 80.7188C151.677 80.7188 152.931 80.2962 153.746 79.4668C154.562 78.6374 154.97 77.3698 154.97 75.6641V74.4747C154.35 75.2572 153.595 75.8362 152.689 76.2118C151.782 76.5874 150.801 76.7908 149.743 76.7908C148.353 76.7908 147.1 76.4778 145.982 75.8675C144.864 75.2572 143.973 74.3965 143.338 73.2854C142.704 72.1743 142.387 70.9224 142.387 69.4983C142.387 68.0742 142.704 66.8223 143.338 65.7112C143.973 64.6001 144.849 63.755 145.982 63.1447C147.1 62.5344 148.353 62.2371 149.743 62.2371C150.831 62.2371 151.858 62.4405 152.795 62.863C153.731 63.2856 154.502 63.8959 155.106 64.7096V62.3779H157.598L157.583 62.4248ZM152.583 73.8175C153.338 73.3949 153.928 72.8159 154.366 72.0804C154.789 71.3292 155.015 70.4842 155.015 69.5452C155.015 68.0899 154.547 66.9162 153.625 66.0242C152.704 65.1322 151.495 64.6783 150.045 64.6783C148.595 64.6783 147.372 65.1322 146.435 66.0242C145.499 66.9162 145.045 68.0899 145.045 69.5452C145.045 70.4842 145.257 71.3292 145.695 72.0804C146.118 72.8316 146.722 73.4106 147.477 73.8175C148.233 74.2243 149.094 74.4434 150.06 74.4434C151.027 74.4434 151.858 74.24 152.613 73.8175H152.583Z" fill="#8093CA"/>
<path d="M176.722 70.8441H164.955C165.121 72.1587 165.68 73.2228 166.631 74.0366C167.583 74.8503 168.776 75.2415 170.196 75.2415C171.933 75.2415 173.323 74.6312 174.381 73.4262L175.831 75.179C175.181 75.9771 174.35 76.5717 173.384 76.9943C172.402 77.4168 171.314 77.6202 170.121 77.6202C168.595 77.6202 167.236 77.2916 166.042 76.65C164.849 75.9927 163.942 75.0851 163.293 73.9114C162.643 72.7377 162.326 71.4231 162.326 69.9521C162.326 68.4811 162.643 67.1822 163.263 66.0085C163.897 64.8348 164.758 63.9272 165.861 63.2699C166.964 62.6126 168.202 62.2997 169.592 62.2997C170.982 62.2997 172.22 62.6283 173.293 63.2699C174.381 63.9272 175.226 64.8348 175.831 66.0085C176.435 67.1822 176.752 68.528 176.752 70.0304C176.752 70.2338 176.737 70.5155 176.692 70.8598L176.722 70.8441ZM166.45 65.7738C165.604 66.5719 165.106 67.6047 164.955 68.888H174.26C174.109 67.6204 173.61 66.5875 172.764 65.7894C171.918 64.9913 170.861 64.5844 169.607 64.5844C168.353 64.5844 167.296 64.9757 166.45 65.7738Z" fill="#8093CA"/>
<path d="M186.042 62.9726C186.934 62.5187 188.021 62.2997 189.29 62.2997V64.9287C189.139 64.9131 188.943 64.8974 188.686 64.8974C187.266 64.8974 186.148 65.3356 185.332 66.212C184.517 67.0883 184.109 68.3403 184.109 69.9678V77.4481H181.48V62.4249H184.003V64.9444C184.456 64.0837 185.136 63.4108 186.027 62.9569L186.042 62.9726Z" fill="#8093CA"/>
<path d="M207.054 62.4249L200.03 78.9504C199.411 80.484 198.686 81.5638 197.855 82.1741C197.024 82.8001 196.027 83.1131 194.864 83.1131C194.154 83.1131 193.459 82.9879 192.794 82.7532C192.13 82.5184 191.571 82.1741 191.133 81.7203L192.251 79.6859C192.991 80.4214 193.867 80.797 194.849 80.797C195.483 80.797 196.027 80.6249 196.45 80.2806C196.873 79.9363 197.266 79.326 197.613 78.4809L198.081 77.4324L191.677 62.4405H194.411L199.471 74.4591L204.471 62.4405H207.039L207.054 62.4249Z" fill="#8093CA"/>
<path d="M84.6376 70.4685H5.64966" stroke="#264B5A" stroke-width="1.37" stroke-miterlimit="10"/>
<path d="M291.36 70.4685H212.372" stroke="#264B5A" stroke-width="1.37" stroke-miterlimit="10"/>
</g>
<defs>
<clipPath id="clip0_1_291">
<rect width="295" height="82.2522" fill="white" transform="translate(0 0.860924)"/>
</clipPath>
</defs>
</svg>
