<svg width="118" height="108" viewBox="0 0 118 108" fill="none" xmlns="http://www.w3.org/2000/svg">
<g clip-path="url(#clip0_25_2461)">
<path d="M44.0451 19.7106C49.1803 19.7106 54.9984 21.3168 60.6116 24.4613C59.041 24.6927 57.4704 24.8016 55.8724 24.8016C54.9301 24.8016 53.9877 24.7744 53.018 24.6927C54.8481 25.1555 56.8694 25.3325 58.8634 25.3325C59.9423 25.3325 61.0076 25.278 62.0592 25.2236C65.8014 24.7063 68.0822 23.699 70.1035 22.8414C71.7833 22.0927 73.2447 21.4666 75.266 21.2079C76.0581 21.099 76.8912 21.031 77.7243 21.031C85.6866 21.031 93.6625 26.4351 94.6048 34.2077C96.1754 42.8107 92.5835 48.8545 88.418 55.8785C84.6213 62.2626 80.3192 69.518 79.8002 79.8497C79.568 85.2946 79.9095 94.2107 74.1597 94.2107C73.5315 94.2107 72.8486 94.1018 72.0838 93.8976C70.3493 93.3531 69.5162 92.1416 68.1231 90.127C65.419 86.3292 62.4826 81.7282 57.4567 79.2236C55.6949 78.5293 53.8375 78.2163 51.9528 78.2163C51.6113 78.2163 51.2699 78.2162 50.9011 78.2435C52.2123 78.3524 53.5234 78.611 54.7525 79.0466C53.9877 81.3743 53.4414 84.0559 53.1546 86.3836C52.8951 88.2894 52.7039 89.5553 51.7616 90.9846C50.8738 92.5364 49.8768 93.1081 48.8252 93.1081C47.4049 93.1081 45.9162 92.0191 44.7143 90.8893C39.0055 85.6486 36.0419 78.3388 33.7065 71.2331C29.2815 58.1109 20.9914 32.1931 33.1875 23.1C36.0146 20.8812 39.7977 19.7923 44.0178 19.7923M44.0451 13.9526C38.4319 13.9526 33.4606 15.5044 29.7049 18.4719C13.9032 30.2057 23.9961 60.1936 28.3118 73.0027C30.9067 80.8298 34.2118 88.9155 40.8903 95.0683C43.5125 97.5457 46.1347 98.7844 48.8525 98.7844C50.7099 98.7844 54.1789 98.1447 56.6373 93.8976C58.1805 91.4746 58.4947 89.3239 58.8088 87.2276C60.2565 88.7522 61.513 90.5626 62.7694 92.3186L63.5342 93.3804C65.1049 95.6808 66.7847 98.1311 70.4039 99.2745C71.797 99.6829 73.0261 99.8462 74.2007 99.8462C84.9491 99.8462 85.3178 87.0098 85.4954 81.5513C85.4954 81.0068 85.5227 80.4623 85.55 79.9722C86.0007 71.1106 89.7428 64.8081 93.362 58.7098C97.6914 51.4 102.171 43.8588 100.286 33.214C98.9479 23.0864 89.0736 15.1777 77.7653 15.1777C76.659 15.1777 75.5664 15.2594 74.4875 15.4091C71.756 15.7766 69.8167 16.6478 67.9319 17.4509C66.416 18.1179 64.9956 18.7169 63.0016 19.1525C56.7329 15.7222 50.2046 13.939 44.0998 13.939L44.0724 13.9662L44.0451 13.9526Z" fill="#4E9A34"/>
<mask id="mask0_25_2461" style="mask-type:luminance" maskUnits="userSpaceOnUse" x="-22" y="2" width="160" height="88">
<path d="M30.3331 69.8175L23.9688 37.5291L-21.5377 52.1351L-9.00022 89.038L129.049 70.3892L137.926 7.5548L113.821 2.55908L89.1419 19.8467L95.5063 27.9188L96.0799 49.0587L88.4181 55.8512L30.3331 69.8175Z" fill="white"/>
</mask>
<g mask="url(#mask0_25_2461)">
<path d="M65.2986 66.8066C93.3341 59.1465 114.189 46.1306 111.88 37.7347C109.571 29.3387 84.9717 28.7422 56.9361 36.4022C28.9006 44.0623 8.0453 57.0782 10.3545 65.4742C12.6637 73.8701 37.263 74.4666 65.2986 66.8066Z" stroke="#4E9A34" stroke-width="4" stroke-miterlimit="10"/>
</g>
<path d="M36.6701 49.1949C36.6701 45.8055 39.4153 43.0694 42.816 43.0694C39.4153 43.0694 36.6701 40.3333 36.6701 36.9438C36.6701 40.3333 33.925 43.0694 30.5243 43.0694C33.925 43.0694 36.6701 45.8055 36.6701 49.1949Z" fill="#4E9A34"/>
<path d="M47.5961 62.7662C47.5961 57.1307 52.1713 52.5706 57.8255 52.5706C52.1713 52.5706 47.5961 48.0105 47.5961 42.375C47.5961 48.0105 43.0208 52.5706 37.3667 52.5706C43.0208 52.5706 47.5961 57.1307 47.5961 62.7662Z" fill="#4E9A34"/>
<mask id="mask1_25_2461" style="mask-type:luminance" maskUnits="userSpaceOnUse" x="-17" y="2" width="148" height="79">
<path d="M28.8889 12.5768L95.9877 28.9115L130.5 49.4661L126.444 75.4111L95.9877 80.5974L80.9509 76.187L82.4806 60.424L24.0678 45.4369L29.6537 61.7716L13.2648 64.848L-17 41.9793L-12.9574 4.69524L18.6731 2L28.8889 12.5768Z" fill="white"/>
</mask>
<g mask="url(#mask1_25_2461)">
<path d="M107.65 65.4453C109.953 57.0711 89.1577 44.0905 61.2022 36.4523C33.2467 28.8141 8.71715 29.4108 6.41391 37.785C4.11067 46.1591 24.906 59.1397 52.8615 66.7779C80.817 74.4161 105.347 73.8195 107.65 65.4453Z" stroke="#4E9A34" stroke-width="4" stroke-miterlimit="10"/>
</g>
</g>
<defs>
<clipPath id="clip0_25_2461">
<rect width="118" height="108" fill="white"/>
</clipPath>
</defs>
</svg>
