<svg width="116" height="107" viewBox="0 0 116 107" fill="none" xmlns="http://www.w3.org/2000/svg">
<path d="M43.2986 19.528C48.3467 19.528 54.0662 21.1194 59.5842 24.2347C58.0402 24.464 56.4963 24.5719 54.9254 24.5719C53.999 24.5719 53.0726 24.5449 52.1194 24.464C53.9185 24.9225 55.9055 25.0978 57.8657 25.0978C58.9263 25.0978 59.9736 25.0439 61.0074 24.9899C64.6861 24.4774 66.9282 23.4795 68.9152 22.6298C70.5666 21.8881 72.0032 21.2677 73.9902 21.0115C74.7689 20.9036 75.5879 20.8362 76.4069 20.8362C84.2342 20.8362 92.075 26.1902 93.0013 33.8909C94.5453 42.4142 91.0143 48.4021 86.9194 55.361C83.187 61.686 78.9578 68.8742 78.4476 79.1103C78.2194 84.5048 78.5551 93.3383 72.9027 93.3383C72.2851 93.3383 71.6138 93.2304 70.862 93.0281C69.1569 92.4887 68.3379 91.2884 66.9685 89.2924C64.3102 85.5298 61.4236 80.9714 56.4828 78.4899C54.7509 77.8021 52.925 77.4919 51.0722 77.4919C50.7365 77.4919 50.4009 77.4919 50.0384 77.5189C51.3273 77.6268 52.6162 77.883 53.8245 78.3146C53.0726 80.6208 52.5356 83.2776 52.2537 85.5837C51.9986 87.4718 51.8106 88.726 50.8842 90.1421C50.0115 91.6795 49.0314 92.2459 47.9976 92.2459C46.6014 92.2459 45.1379 91.167 43.9564 90.0477C38.3444 84.8554 35.431 77.6133 33.1351 70.5735C28.7851 57.5727 20.6356 31.8949 32.625 22.8861C35.4041 20.6878 39.1231 19.6089 43.2717 19.6089M43.2986 13.8233C37.7805 13.8233 32.8935 15.3607 29.2014 18.3007C13.6676 29.9259 23.5893 59.6361 27.8319 72.3267C30.3828 80.0813 33.6319 88.0921 40.1972 94.1879C42.775 96.6424 45.3527 97.8697 48.0245 97.8697C49.8504 97.8697 53.2606 97.2358 55.6773 93.0281C57.1944 90.6276 57.5032 88.4967 57.812 86.4199C59.2351 87.9303 60.4703 89.724 61.7055 91.4637L62.4574 92.5156C64.0014 94.7948 65.6527 97.2224 69.2106 98.3552C70.5801 98.7598 71.7884 98.9216 72.943 98.9216C83.5092 98.9216 83.8717 86.2041 84.0463 80.7961C84.0463 80.2566 84.0731 79.7172 84.1 79.2317C84.543 70.4521 88.2217 64.208 91.7796 58.1661C96.0356 50.924 100.439 43.4526 98.5865 32.9064C97.2708 22.8726 87.5639 15.0371 76.4472 15.0371C75.3597 15.0371 74.2856 15.118 73.225 15.2663C70.5398 15.6305 68.6333 16.4936 66.7805 17.2893C65.2902 17.9501 63.8939 18.5435 61.9338 18.9751C55.7713 15.5765 49.3537 13.8098 43.3523 13.8098L43.3254 13.8368L43.2986 13.8233Z" fill="#4E9A34"/>
<path d="M36.0486 48.7394C36.0486 45.3814 38.7472 42.6706 42.0903 42.6706C38.7472 42.6706 36.0486 39.9599 36.0486 36.6018C36.0486 39.9599 33.35 42.6706 30.007 42.6706C33.35 42.6706 36.0486 45.3814 36.0486 48.7394Z" fill="#4E9A34"/>
<path d="M46.7893 62.1851C46.7893 56.6018 51.287 52.0839 56.8453 52.0839C51.287 52.0839 46.7893 47.566 46.7893 41.9827C46.7893 47.566 42.2916 52.0839 36.7333 52.0839C42.2916 52.0839 46.7893 56.6018 46.7893 62.1851Z" fill="#4E9A34"/>
</svg>
