<svg width="113" height="101" viewBox="0 0 113 101" fill="none" xmlns="http://www.w3.org/2000/svg">
<path d="M34.9151 9.24341C28.6012 9.24341 22.2727 11.7132 17.5082 16.696C7.96487 26.6472 7.97935 42.6068 17.5082 52.5725L53.915 90.6587C55.2618 92.0741 57.5209 92.1319 58.9256 90.7742C58.9691 90.7309 59.0125 90.702 59.0415 90.6587C71.1916 77.9777 83.3416 65.2823 95.4917 52.6158C105.035 42.6645 105.035 26.705 95.4917 16.7393C85.9483 6.7881 70.2068 6.7881 60.6634 16.7393L56.4927 21.0578L52.322 16.7104C47.5576 11.7276 41.2291 9.25785 34.9151 9.25785V9.24341ZM34.9151 16.1761C39.332 16.1761 43.7634 17.9959 47.2245 21.5922L53.9585 28.6404C55.3052 30.0558 57.5644 30.1136 58.9691 28.7559C59.0125 28.7126 59.056 28.6837 59.0849 28.6404L65.7754 21.6355C72.6832 14.4285 83.443 14.4285 90.3507 21.6355C97.2585 28.8426 97.2585 40.527 90.3507 47.734C79.0696 59.5195 67.7739 71.2761 56.4927 83.0472L22.6347 47.6907C15.727 40.4692 15.727 28.7992 22.6347 21.5922C26.0958 17.9814 30.4983 16.1761 34.9007 16.1761H34.9151Z" fill="#4E9A34"/>
</svg>
