<svg width="152" height="126" viewBox="0 0 152 126" fill="none" xmlns="http://www.w3.org/2000/svg">
<path d="M85.5937 56.5046C85.4769 57.4956 85.36 58.5046 85.2431 59.5136L90.9117 61.1713C91.4377 56.883 91.7299 54.1082 91.7299 54.0362L92.0415 51.0452L62.1012 51.3695L62.1792 52.7929L75.3279 56.6308L85.5937 56.5226V56.5046Z" fill="#4E9A34"/>
<path d="M92.4506 66.8649L91.4961 66.5946C91.2429 66.5946 90.9896 66.5586 90.7364 66.4865L90.2494 66.3424L84.6198 64.7027L68.4516 60L62.4908 58.2523L60.6208 57.7117C59.3351 57.6757 58.1274 58.3964 57.7183 59.5856C57.2313 61.009 58.0884 62.5226 59.6273 62.973L62.861 63.9099C62.9389 65.0631 63.0363 66.2523 63.1142 67.4775L69.1529 69.2433C69.0555 68.0541 68.9581 66.8649 68.8607 65.6757L83.899 70.0541C83.7432 71.1712 83.5873 72.2883 83.412 73.4054L89.0417 75.0451C89.217 73.9099 89.3728 72.7928 89.5286 71.6937L90.6974 72.0361C90.9896 72.1262 91.2818 72.1622 91.574 72.1622C92.8207 72.1622 93.97 71.4235 94.3596 70.2703C94.8466 68.8469 93.9895 67.3334 92.4506 66.8829V66.8649Z" fill="#4E9A34"/>
<path d="M92.4506 81.2794L91.4961 81.0091C91.2429 81.0091 90.9896 80.9731 90.7364 80.901L88.2235 80.1623L82.5939 78.5226L69.6399 74.7389L63.5622 72.9731L60.6013 72.1082C59.3156 72.0722 58.1079 72.7929 57.6988 73.9821C57.2118 75.4055 58.0689 76.919 59.6078 77.3695L64.0882 78.6848C64.2051 79.892 64.3414 81.0992 64.4778 82.2884L70.6528 84.0902C70.5165 82.901 70.3606 81.6938 70.2243 80.4686L81.6978 83.8019C81.503 84.937 81.2887 86.0361 81.0939 87.1172L86.7236 88.7569C86.9184 87.6938 87.1326 86.5947 87.3274 85.4416L90.6779 86.4145C90.9701 86.5046 91.2623 86.5407 91.5545 86.5407C92.8012 86.5407 93.9505 85.8019 94.3401 84.6488C94.8271 83.2253 93.97 81.7118 92.4311 81.2614L92.4506 81.2794Z" fill="#4E9A34"/>
<path d="M92.4506 95.6937L91.4961 95.4235C91.2429 95.4235 90.9896 95.3874 90.7364 95.3153L85.6911 93.8379L80.081 92.1982L71.3931 89.6577L65.179 87.8559L60.6013 86.5226C59.3156 86.4685 58.1079 87.2072 57.6988 88.3964C57.2118 89.8199 58.0689 91.3334 59.6078 91.7838L66.0556 93.6577C67.6335 103.117 69.7568 110.829 72.6203 112.847C73.4384 113.423 74.3734 113.73 75.3279 113.73C75.6396 113.73 75.9318 113.694 76.2435 113.64C78.62 113.153 81.3277 111.351 84.4639 99.0451L90.6779 100.847C90.9701 100.937 91.2623 100.973 91.5545 100.973C92.8012 100.973 93.9505 100.234 94.3401 99.0811C94.8271 97.6577 93.97 96.1442 92.4311 95.6937H92.4506ZM75.4448 107.532C74.3734 105.496 73.3021 101.171 72.3086 95.4775L78.8927 97.4054C77.7045 102.198 76.5357 105.784 75.4254 107.532H75.4448Z" fill="#4E9A34"/>
<path d="M84.6198 64.5767L68.4321 59.856C68.4321 59.856 68.4321 59.928 68.4321 59.9641L84.6003 64.6668C84.6003 64.6668 84.6003 64.5947 84.6003 64.5587L84.6198 64.5767Z" fill="white"/>
<path d="M62.4714 58.126L61.3805 57.8017C61.1273 57.7296 60.874 57.6936 60.6013 57.6936L62.4714 58.2341C62.4714 58.2341 62.4714 58.1621 62.4714 58.126Z" fill="white"/>
<path d="M90.2494 66.3244L90.7364 66.4686C90.9896 66.5406 91.2429 66.5767 91.4961 66.5767L90.2689 66.2163C90.2689 66.2163 90.2689 66.2884 90.2689 66.3244H90.2494Z" fill="white"/>
<path d="M90.2494 66.3244C90.2494 66.3244 90.2494 66.2523 90.2494 66.2163L84.6003 64.5767C84.6003 64.5767 84.6003 64.6487 84.6003 64.6848L90.2299 66.3244H90.2494Z" fill="white"/>
<path d="M62.4714 58.1262C62.4714 58.1262 62.4714 58.1983 62.4714 58.2343L68.4321 59.9821C68.4321 59.9821 68.4321 59.91 68.4321 59.874L62.4714 58.1262Z" fill="white"/>
<path d="M82.6134 78.4144L69.6204 74.6306C69.6204 74.6306 69.6204 74.7027 69.6204 74.7387L82.5744 78.5225C82.5744 78.5225 82.5744 78.4504 82.5744 78.4144H82.6134Z" fill="white"/>
<path d="M88.2235 80.1621L90.7364 80.9009C90.9896 80.9729 91.2429 81.009 91.4961 81.009L88.243 80.072C88.243 80.072 88.243 80.1441 88.243 80.1801L88.2235 80.1621Z" fill="white"/>
<path d="M88.2235 80.1621C88.2235 80.1621 88.2235 80.09 88.2235 80.0539L82.5939 78.4143C82.5939 78.4143 82.5939 78.4864 82.5939 78.5224L88.2235 80.1621Z" fill="white"/>
<path d="M71.393 89.6577L80.081 92.1982C80.081 92.1982 80.081 92.1261 80.1005 92.0901L71.3736 89.5496C71.3736 89.5496 71.3736 89.6216 71.3736 89.6577H71.393Z" fill="white"/>
<path d="M85.6912 93.8379L90.7364 95.3154C90.9896 95.3874 91.2429 95.4235 91.4961 95.4235L85.7301 93.7478C85.7301 93.7478 85.7301 93.8199 85.7106 93.8559L85.6912 93.8379Z" fill="white"/>
<path d="M65.179 87.7477L61.3805 86.6306C61.1273 86.5585 60.874 86.5225 60.6208 86.5225L65.1985 87.8558C65.1985 87.8558 65.1985 87.7837 65.1985 87.7477H65.179Z" fill="white"/>
<path d="M85.6911 93.8378C85.6911 93.8378 85.6911 93.7658 85.7106 93.7297L80.1005 92.0901C80.1005 92.0901 80.1005 92.1622 80.081 92.1982L85.6911 93.8378Z" fill="white"/>
<path d="M65.179 87.7478C65.179 87.7478 65.179 87.8199 65.179 87.8559L71.3931 89.6577C71.3931 89.6577 71.3931 89.5856 71.3931 89.5496L65.179 87.7478Z" fill="white"/>
<path fill-rule="evenodd" clip-rule="evenodd" d="M59.9585 56.6668C58.5365 56.6668 57.1924 56.1442 56.1794 55.2253C55.1665 54.2884 54.6211 53.0451 54.6211 51.7298V47.3154V46.7929C54.212 43.2974 52.2056 39.0992 52.1861 39.0632L52.1277 38.919C52.0692 38.7929 50.9394 35.6938 50.9394 33.874C50.9394 28.3244 55.0886 23.5316 60.7182 22.1803L60.6403 22.1442L61.361 22.0542C61.8285 21.9641 62.3155 21.892 62.8025 21.856H62.8999C63.0947 21.8199 63.309 21.7839 63.5038 21.7839C63.7765 21.7839 64.0687 21.7659 64.3414 21.7659C69.4646 21.7659 74.1202 24.2524 76.3019 25.6217C78.4837 24.2524 83.1198 21.7659 88.2625 21.7659C88.5352 21.7659 88.8274 21.7659 89.1001 21.7839C89.3144 21.7839 89.5092 21.8199 89.704 21.8379C96.405 22.3244 101.684 27.6217 101.684 33.874C101.684 35.6938 100.554 38.7749 100.496 38.919L100.437 39.0632C100.437 39.0632 98.4309 43.2974 98.0023 46.901V47.5497V47.6938V51.7298C98.0023 53.0271 97.4374 54.3064 96.4439 55.2253C95.4505 56.1442 94.0869 56.6668 92.6649 56.6668H82.7302H59.9195H59.9585ZM93.8921 45.5316C94.5349 41.8199 96.3076 37.946 96.5024 37.4956C96.9115 36.3965 97.4179 34.7569 97.4179 33.874C97.4179 29.6578 93.8726 26.1262 89.3339 25.8199L88.8663 25.7659C88.691 25.7659 88.4767 25.7659 88.282 25.7659C83.5289 25.7659 79.2434 28.5767 78.0356 29.4235L77.724 29.6578C71.7632 33.9821 66.679 34.5767 62.0623 34.5767H61.8675C60.6792 34.5767 59.7053 33.6758 59.7053 32.5587C59.7053 31.4596 60.6792 30.5767 61.8675 30.5767H62.0428C65.1985 30.5767 68.627 30.2524 72.5424 28.1082C70.5749 27.0271 67.5945 25.7659 64.4388 25.7659C64.2245 25.7659 64.0103 25.7659 63.796 25.7659L63.4064 25.8019C58.8481 26.1082 55.2834 29.6578 55.2834 33.874C55.2834 34.7388 55.7509 36.3424 56.1989 37.5316C56.3937 37.928 58.1664 41.7839 58.7897 45.5316H93.8921Z" fill="#4E9A34"/>
</svg>
