<svg width="118" height="118" viewBox="0 0 118 118" fill="none" xmlns="http://www.w3.org/2000/svg">
<path d="M34.761 77.4121C30.761 77.4121 27.705 75.9081 25.593 72.9001C23.481 69.8601 22.425 65.5401 22.425 59.9401C22.425 54.2761 23.481 49.9721 25.593 47.0281C27.705 44.0841 30.761 42.6121 34.761 42.6121C38.793 42.6121 41.849 44.0841 43.929 47.0281C46.041 49.9721 47.097 54.2601 47.097 59.8921C47.097 65.5241 46.041 69.8601 43.929 72.9001C41.817 75.9081 38.761 77.4121 34.761 77.4121ZM34.761 72.3721C36.937 72.3721 38.537 71.3641 39.561 69.3481C40.617 67.3321 41.145 64.1801 41.145 59.8921C41.145 55.6041 40.617 52.5001 39.561 50.5801C38.537 48.6281 36.937 47.6521 34.761 47.6521C32.617 47.6521 31.017 48.6281 29.961 50.5801C28.905 52.5001 28.377 55.6041 28.377 59.8921C28.377 64.1801 28.905 67.3321 29.961 69.3481C31.017 71.3641 32.617 72.3721 34.761 72.3721ZM64.9342 76.5481C64.5182 77.2521 64.0062 77.6681 63.3982 77.7961C62.8222 77.9241 62.2622 77.8281 61.7182 77.5081C61.2062 77.2201 60.8542 76.7881 60.6622 76.2121C60.4702 75.6041 60.5822 74.9481 60.9982 74.2441L78.7102 43.5241C79.1262 42.7881 79.6222 42.3721 80.1982 42.2761C80.8062 42.1481 81.3662 42.2441 81.8782 42.5641C82.3902 42.8521 82.7422 43.2841 82.9342 43.8601C83.1262 44.4361 83.0302 45.0761 82.6462 45.7801L64.9342 76.5481ZM59.7982 63.3001C57.1102 63.3001 55.0142 62.3721 53.5102 60.5161C52.0062 58.6601 51.2542 56.1321 51.2542 52.9321C51.2542 49.7321 52.0062 47.2201 53.5102 45.3961C55.0142 43.5401 57.1102 42.6121 59.7982 42.6121C62.4862 42.6121 64.5822 43.5401 66.0862 45.3961C67.5902 47.2201 68.3422 49.7321 68.3422 52.9321C68.3422 56.1321 67.5902 58.6601 66.0862 60.5161C64.5822 62.3721 62.4862 63.3001 59.7982 63.3001ZM59.7982 59.2681C60.9502 59.2681 61.8462 58.7561 62.4862 57.7321C63.1262 56.6761 63.4462 55.0761 63.4462 52.9321C63.4462 50.7881 63.1262 49.2041 62.4862 48.1801C61.8462 47.1561 60.9502 46.6441 59.7982 46.6441C58.6462 46.6441 57.7502 47.1561 57.1102 48.1801C56.4702 49.1721 56.1502 50.7561 56.1502 52.9321C56.1502 55.1081 56.4702 56.7081 57.1102 57.7321C57.7502 58.7561 58.6462 59.2681 59.7982 59.2681ZM83.8942 77.4121C81.2062 77.4121 79.1102 76.4841 77.6062 74.6281C76.1022 72.7721 75.3502 70.2441 75.3502 67.0441C75.3502 63.8441 76.1022 61.3321 77.6062 59.5081C79.1102 57.6521 81.2062 56.7241 83.8942 56.7241C86.5822 56.7241 88.6782 57.6521 90.1822 59.5081C91.6862 61.3321 92.4382 63.8441 92.4382 67.0441C92.4382 70.2441 91.6862 72.7721 90.1822 74.6281C88.6782 76.4841 86.5822 77.4121 83.8942 77.4121ZM83.8942 73.3801C85.0462 73.3801 85.9422 72.8681 86.5822 71.8441C87.2222 70.7881 87.5422 69.1881 87.5422 67.0441C87.5422 64.9001 87.2222 63.3161 86.5822 62.2921C85.9422 61.2681 85.0462 60.7561 83.8942 60.7561C82.7422 60.7561 81.8462 61.2681 81.2062 62.2921C80.5662 63.2841 80.2462 64.8681 80.2462 67.0441C80.2462 69.2201 80.5662 70.8201 81.2062 71.8441C81.8462 72.8681 82.7422 73.3801 83.8942 73.3801Z" fill="#4E9A34"/>
<path d="M109.204 62.5691L113.545 70.8773C114.489 72.7655 113.923 75.0314 112.224 75.9755L104.297 81.0738C102.221 82.3956 100.9 84.6614 100.711 87.1162L100.145 96.5574C100.145 98.6344 98.4463 100.334 96.3702 100.334H96.1815L87.122 100.9C84.6684 101.089 82.4036 102.411 80.8937 104.488L75.9865 112.041C74.854 113.74 72.5892 114.307 70.8905 113.363L62.586 109.02C60.3212 107.887 57.6788 107.887 55.6027 109.02L47.1095 113.552C45.2221 114.496 42.9572 113.929 42.0135 112.041L36.9176 104.11C35.5964 102.033 33.3316 100.711 30.878 100.523L21.6298 100.334H21.4411C19.3649 100.334 17.6663 98.6344 17.6663 96.5574L17.1001 87.1162C16.9113 84.6614 15.5902 82.3956 13.5141 81.0738L5.77578 75.9755C4.07713 74.8426 3.51092 72.5767 4.45461 70.8773L8.79559 62.5691C9.92802 60.3032 9.92802 57.6596 8.79559 55.3937L4.45461 47.0855C3.51092 45.1973 4.07713 43.1202 5.77578 41.9872L13.5141 36.889C15.5902 35.5672 16.9113 33.3013 17.1001 30.8466L17.6663 21.5943C17.6663 19.5172 19.3649 17.8178 21.4411 17.8178L30.6892 17.4401C33.1428 17.2513 35.4077 15.9295 36.9176 13.8525L42.0135 5.92188C42.7685 4.78894 43.9009 4.03364 45.4108 4.03364C45.9771 4.03364 46.732 4.22246 47.2982 4.41129L55.6027 8.75424C57.8676 9.88718 60.5099 9.88718 62.586 8.75424L70.8905 4.41129C72.7779 3.46717 74.854 4.22246 75.9865 5.92188L81.0824 13.6637C82.4036 15.7407 84.6684 17.0625 87.122 17.2513L96.5589 17.8178C98.6351 17.8178 100.334 19.5172 100.334 21.5943L100.9 30.8466C101.089 33.3013 102.221 35.5672 104.297 36.889L112.224 41.9872C113.923 43.1202 114.489 45.3861 113.545 47.0855L109.204 55.3937C108.072 57.6596 108.072 60.3032 109.204 62.5691Z" stroke="#4E9A34" stroke-width="7" stroke-miterlimit="10"/>
</svg>
