<svg width="93" height="37" viewBox="0 0 93 37" fill="none" xmlns="http://www.w3.org/2000/svg">
<g clip-path="url(#clip0_25_2595)">
<path d="M0.0985109 28.2545C0.158472 28.6128 0.24199 28.9392 0.334073 29.2335C0.800915 30.6627 1.26776 32.094 1.73246 33.5231C2.36847 35.4386 4.48211 36.471 6.46083 35.8908C8.71795 35.2253 10.9879 34.6174 13.2686 34.0692C14.2108 33.8409 14.9796 33.2863 15.5043 32.5611C16.2881 32.9941 17.2196 33.1712 18.1683 32.9771C21.2756 32.3435 24.3978 31.8145 27.5308 31.3922C28.4859 31.2621 29.304 30.7885 29.8971 30.123C30.6295 30.6328 31.5354 30.9059 32.4948 30.8099C36.3259 30.4302 40.1698 30.2041 44.0159 30.1379C44.9774 30.1209 45.8447 29.7455 46.5107 29.1525C47.1767 29.7455 48.044 30.1209 49.0055 30.1379C52.8516 30.2062 56.6956 30.4302 60.5267 30.8099C61.486 30.9059 62.3919 30.6328 63.1243 30.123C63.7175 30.7885 64.5355 31.2621 65.4906 31.3922C68.6236 31.8145 71.7459 32.3435 74.8531 32.9771C75.8018 33.1712 76.7334 32.992 77.5171 32.5611C78.0418 33.2842 78.8106 33.8409 79.7528 34.0692C82.0335 34.6195 84.3035 35.2274 86.5606 35.8908C88.5372 36.4731 90.6529 35.4386 91.289 33.5231C91.7558 32.094 92.2226 30.6627 92.6873 29.2335C92.8929 28.6043 92.9936 27.9558 93.0021 27.3053C92.8137 26.3816 92.6167 25.458 92.4111 24.5344C91.456 22.4163 89.5651 20.9125 87.3508 20.2619C85.038 19.6071 82.6545 19.9334 80.7422 21.2068C80.0227 17.6062 76.6113 14.7906 72.5618 14.364C69.6922 14.0526 67.0175 15.0295 65.2165 16.768C64.0494 13.2847 60.4667 10.5224 55.9632 10.2643C51.9029 10.0232 48.3095 11.9067 46.515 14.7415C44.6433 11.7894 41.0157 10.0296 37.0775 10.2643C32.5911 10.5224 28.9827 13.2783 27.8113 16.768C23.8496 12.8922 16.8556 13.8051 13.6947 18.099C12.9773 19.0631 12.5084 20.1211 12.2835 21.2068C10.3797 19.9419 8.02197 19.6007 5.67491 20.264C4.4093 20.6373 3.27218 21.2794 2.35777 22.1241C2.21215 22.2584 1.58684 22.8472 1.01506 23.7665C0.494684 24.6048 0.233424 25.3706 0.0942279 25.9188C-0.00642139 26.548 -0.0513924 27.3522 0.100652 28.2566L0.0985109 28.2545ZM13.6797 30.2126C13.8339 30.8824 13.3928 31.5564 12.699 31.7249C10.3797 32.2838 8.07122 32.9024 5.77556 33.5786C5.08601 33.7812 4.36219 33.4186 4.16089 32.7616C3.71975 31.3239 3.2786 29.8862 2.83746 28.4486C2.47127 27.2583 2.63616 25.9785 3.33428 24.848C3.99171 23.7665 5.07744 22.9538 6.37303 22.572C6.41372 22.5592 6.45441 22.5485 6.4951 22.5357C7.75643 22.1966 9.09271 22.3438 10.2448 22.9474C11.5169 23.6129 12.4056 24.7541 12.7097 26.0553C13.033 27.4396 13.3564 28.8261 13.6797 30.2105V30.2126ZM28.3317 27.5996C28.4174 28.2801 27.912 28.9072 27.2053 29.0032C24.0188 29.434 20.8408 29.9716 17.6822 30.6158C16.9819 30.7587 16.2945 30.3342 16.1489 29.6623C15.8491 28.2715 15.5514 26.8808 15.2516 25.49C15.1338 24.9397 15.016 24.3915 14.8961 23.8412C14.5642 22.3054 14.9111 20.7162 15.9176 19.3831C19.3654 14.8311 27.0254 16.4587 27.6143 21.9513C27.8542 23.8348 28.0919 25.7161 28.3317 27.5996ZM45.2537 26.4648C45.2579 27.1517 44.684 27.7148 43.9731 27.7276C40.0606 27.7959 36.1524 28.0241 32.2549 28.4123C31.5461 28.4827 30.9101 27.99 30.833 27.3074C30.6274 25.4218 30.4197 23.534 30.2141 21.6484C30.1605 21.1642 30.1091 20.68 30.0556 20.1958C29.6059 16.4181 32.8095 12.9285 37.2146 12.6725C41.5875 12.4144 45.1937 15.4903 45.1916 19.3127C45.213 21.6974 45.2322 24.0822 45.2537 26.467V26.4648ZM62.8052 21.6463C62.5996 23.5319 62.3919 25.4196 62.1863 27.3053C62.1114 27.9878 61.4732 28.4806 60.7644 28.4102C56.8669 28.0241 52.9565 27.7959 49.0462 27.7255C48.3352 27.7127 47.7613 27.1495 47.7656 26.4627C47.787 24.0779 47.8063 21.6932 47.8277 19.3084C47.8256 15.5052 51.4104 12.4101 55.8154 12.6704C60.199 12.9242 63.4134 16.4053 62.9637 20.1915C62.9101 20.6757 62.8587 21.1599 62.8052 21.6441V21.6463ZM77.7698 25.49C77.47 26.8808 77.1724 28.2715 76.8726 29.6623C76.7269 30.3342 76.0395 30.7587 75.3392 30.6158C72.1784 29.9716 69.0026 29.434 65.8161 29.0032C65.1094 28.9072 64.604 28.2822 64.6897 27.5996C64.9295 25.7161 65.1672 23.8348 65.4071 21.9513C65.7968 18.6685 69.0112 16.1899 72.7909 16.8298C76.4507 17.4484 78.8363 20.665 78.1253 23.8433C78.0075 24.3936 77.8897 24.9418 77.7698 25.4922V25.49ZM88.8605 32.7616C88.6571 33.4186 87.9333 33.7812 87.2459 33.5786C84.9502 32.9024 82.6417 32.2838 80.3225 31.7249C79.6265 31.5564 79.1853 30.8824 79.3417 30.2126C79.665 28.8283 79.9884 27.4418 80.3118 26.0574C80.89 23.5084 83.7124 21.7828 86.5263 22.5379C86.567 22.5485 86.6098 22.5613 86.6484 22.5741C87.944 22.956 89.0318 23.7686 89.6914 24.8544C91.3061 27.51 89.6015 29.4298 88.8605 32.7637V32.7616Z" fill="white"/>
<path d="M5.34513 23.0093L2.56335 22.9176C2.64259 20.5563 3.12656 18.323 4.00457 16.2774C7.05831 9.14655 14.7591 4.27251 26.8927 1.78324C36.2166 -0.130115 45.258 -0.0213287 48.2303 0.0149333L48.1961 2.78791C45.2986 2.75164 36.4822 2.64713 27.4537 4.50075C16.2667 6.79592 9.23833 11.1239 6.56363 17.3652C5.82268 19.0951 5.41152 20.9935 5.34513 23.0114V23.0093Z" fill="white"/>
<path d="M88.171 23.0093C88.1024 20.9935 87.6934 19.093 86.9525 17.3631C84.2778 11.1218 77.2494 6.79378 66.0624 4.49861C57.0339 2.64712 48.2174 2.75164 45.32 2.78577L45.2858 0.0127958C48.256 -0.0234662 57.2994 -0.130119 66.6234 1.7811C78.757 4.27038 86.4578 9.14441 89.5137 16.2731C90.3895 18.3187 90.8756 20.5541 90.9549 22.9133L88.1731 23.0071L88.171 23.0093Z" fill="white"/>
</g>
<defs>
<clipPath id="clip0_25_2595">
<rect width="93" height="37" fill="white"/>
</clipPath>
</defs>
</svg>
