<svg width="295" height="64" viewBox="0 0 295 64" fill="none" xmlns="http://www.w3.org/2000/svg">
<g clip-path="url(#clip0_25_2401)">
<path fill-rule="evenodd" clip-rule="evenodd" d="M60.4823 27.2793C64.3538 20.9481 65.2019 15.748 62.8175 11.642C61.0476 8.54399 57.2744 6.92124 52.1123 6.85978C52.2352 6.85978 52.3581 6.85978 52.4688 6.85978C57.8398 6.83519 62.289 8.11371 64.0957 11.2854C66.4801 15.3915 64.3538 20.9481 60.4823 27.267V27.2793Z" fill="white"/>
<path fill-rule="evenodd" clip-rule="evenodd" d="M44.2463 7.63427C48.0933 4.9174 53.0218 2.21283 58.356 2.74145C64.9806 3.47906 68.8276 6.72455 70.0689 11.8509C71.2611 18.514 67.07 23.8494 61.9203 26.9842C65.8655 20.5547 67.4756 14.9489 65.0544 10.7691C62.2644 5.8763 57.1269 4.04456 44.2463 7.62198V7.63427Z" fill="#4E9A34"/>
<path fill-rule="evenodd" clip-rule="evenodd" d="M17.0593 49.7273C15.3755 46.9612 13.7162 44.3919 12.1184 41.8717C13.7777 44.5271 15.4492 47.0842 17.0593 49.7273ZM16.9487 2.21643e-05C17.1084 2.21643e-05 17.2805 2.21643e-05 17.4403 2.21643e-05C8.78769 0.184425 -1.58562 7.15484 2.85131 22.3373C6.71057 33.8563 11.8726 41.2447 16.7643 49.2478C11.1106 40.0154 4.572 32.1353 1.00771 21.5014C-3.51525 6.03613 8.21002 -0.0737389 16.9487 2.21643e-05Z" fill="white"/>
<path fill-rule="evenodd" clip-rule="evenodd" d="M19.8125 0.233578C25.921 0.3811 33.959 4.67153 45.2296 11.8509C52.2967 16.1045 57.5202 15.3669 60.4577 11.7157C56.8934 18.9689 48.3022 17.1126 41.358 13.8794C35.2004 11.5928 27.2484 6.0607 20.9433 5.83942C12.7208 5.54437 9.47609 11.8386 9.20569 18.8214C8.95988 28.8283 16.4449 41.2693 20.0583 52.5056C14.6504 43.2486 8.67719 35.5159 4.3386 22.5709C-0.258103 6.84748 11.0124 -0.0737594 19.8125 0.233578Z" fill="#4E9A34"/>
<path d="M44.6888 23.3331V43.9616H42.5994V27.4637L34.4998 41.3431H33.4674L25.3679 27.5497V43.9616H23.2785V23.3331H25.0729L34.0328 38.6262L42.8943 23.3331H44.6888Z" fill="white"/>
<path d="M60.4454 29.8609C61.527 30.869 62.0677 32.3688 62.0677 34.3481V43.9493H60.0644V41.5275C59.5973 42.3388 58.8968 42.9658 57.9872 43.4084C57.0777 43.8632 55.9839 44.0845 54.7302 44.0845C52.9972 44.0845 51.6207 43.6665 50.6006 42.8429C49.5804 42.0192 49.0642 40.9251 49.0642 39.5728C49.0642 38.2205 49.5436 37.2002 50.49 36.3888C51.4486 35.5897 52.9604 35.184 55.0375 35.184H59.9537V34.2374C59.9537 32.8974 59.585 31.8894 58.8353 31.1886C58.0856 30.4879 57.004 30.1437 55.566 30.1437C54.5827 30.1437 53.6364 30.3035 52.7391 30.6354C51.8296 30.9551 51.0553 31.4099 50.4162 31.9754L49.4698 30.4141C50.2564 29.7503 51.2028 29.234 52.2967 28.8652C53.4028 28.4963 54.5582 28.3242 55.7749 28.3242C57.8029 28.3242 59.3515 28.8283 60.4331 29.8363L60.4454 29.8609ZM58.0979 41.6381C58.9459 41.0972 59.5727 40.3227 59.9783 39.29V36.7576H55.1112C52.4565 36.7576 51.1414 37.6796 51.1414 39.5236C51.1414 40.4211 51.4855 41.1341 52.1738 41.6627C52.8621 42.179 53.8207 42.4495 55.0621 42.4495C56.3034 42.4495 57.2498 42.179 58.0979 41.6381Z" fill="white"/>
<path d="M71.3595 29.1356C72.3304 28.607 73.5349 28.3365 74.9729 28.3365V30.365L74.469 30.3404C72.8343 30.3404 71.5561 30.8444 70.6343 31.8402C69.7125 32.836 69.2455 34.2497 69.2455 36.0569V43.9493H67.1561V28.4472H69.1594V31.4837C69.6511 30.4387 70.3885 29.6519 71.3595 29.1233V29.1356Z" fill="white"/>
<path d="M78.8199 43.5559C77.6769 43.1871 76.7673 42.7322 76.1282 42.1913L77.0746 40.544C77.726 41.0603 78.5372 41.466 79.5205 41.7979C80.5037 42.1176 81.5238 42.2897 82.5808 42.2897C83.9943 42.2897 85.0389 42.0684 85.7149 41.6258C86.3909 41.1833 86.7351 40.5563 86.7351 39.7572C86.7351 39.1917 86.5507 38.7368 86.1697 38.4172C85.801 38.0976 85.3216 37.8517 84.7563 37.6796C84.1909 37.5075 83.4289 37.3477 82.4825 37.1879C81.2289 36.9543 80.2087 36.7084 79.4467 36.4625C78.6847 36.2167 78.0333 35.7987 77.4925 35.2086C76.9517 34.6185 76.6813 33.8071 76.6813 32.7622C76.6813 31.4714 77.2221 30.4018 78.3037 29.5782C79.3853 28.7545 80.8847 28.3365 82.8143 28.3365C83.8099 28.3365 84.8177 28.4718 85.8256 28.7299C86.8211 29.0004 87.6569 29.3446 88.296 29.7749L87.3865 31.4591C86.1082 30.574 84.5842 30.1314 82.8266 30.1314C81.487 30.1314 80.4914 30.365 79.8031 30.8444C79.1272 31.3116 78.783 31.9385 78.783 32.7007C78.783 33.2908 78.9797 33.758 79.3607 34.1145C79.7417 34.471 80.221 34.7292 80.7864 34.889C81.3518 35.0611 82.1384 35.2332 83.1462 35.4053C84.3876 35.6389 85.3708 35.8725 86.1205 36.1183C86.8703 36.3519 87.5094 36.7576 88.0379 37.3231C88.5664 37.8886 88.8368 38.6754 88.8368 39.6834C88.8368 41.0357 88.2714 42.1176 87.1407 42.9043C86.0099 43.7034 84.449 44.0968 82.4456 44.0968C81.192 44.0968 79.9875 43.9124 78.8322 43.5559H78.8199Z" fill="white"/>
<path d="M104.618 30.033C105.761 31.164 106.339 32.8114 106.339 34.9627V43.9493H104.249V35.1717C104.249 33.5613 103.844 32.3319 103.045 31.4837C102.234 30.6354 101.091 30.2174 99.6034 30.2174C97.9318 30.2174 96.6167 30.7092 95.6458 31.705C94.6748 32.7007 94.1832 34.0653 94.1832 35.811V43.937H92.0938V22.0791H94.1832V31.1517C94.7486 30.2543 95.5352 29.5536 96.543 29.0619C97.5508 28.5701 98.6939 28.3242 99.9844 28.3242C101.926 28.3242 103.475 28.8897 104.618 30.0207V30.033Z" fill="white"/>
<path d="M121.186 25.214V33.3154H131.854V35.1963H121.186V43.9493H119.01V23.3208H133.145V25.2017H121.186V25.214Z" fill="white"/>
<path d="M146.074 29.8609C147.156 30.869 147.697 32.3688 147.697 34.3481V43.9493H145.693V41.5275C145.226 42.3388 144.526 42.9658 143.616 43.4084C142.707 43.8509 141.613 44.0845 140.359 44.0845C138.626 44.0845 137.262 43.6665 136.242 42.8429C135.222 42.0192 134.705 40.9251 134.705 39.5728C134.705 38.2205 135.185 37.2002 136.131 36.3888C137.078 35.5897 138.602 35.184 140.679 35.184H145.595V34.2374C145.595 32.8974 145.226 31.8894 144.477 31.1886C143.727 30.4879 142.645 30.1437 141.207 30.1437C140.224 30.1437 139.278 30.3035 138.38 30.6354C137.471 30.9551 136.697 31.4099 136.057 31.9754L135.111 30.4141C135.898 29.7503 136.844 29.234 137.938 28.8652C139.044 28.4963 140.199 28.3242 141.416 28.3242C143.444 28.3242 144.993 28.8283 146.074 29.8363V29.8609ZM143.714 41.6381C144.563 41.0972 145.189 40.3227 145.595 39.29V36.7576H140.728C138.073 36.7576 136.746 37.6796 136.746 39.5236C136.746 40.4211 137.09 41.1341 137.778 41.6627C138.466 42.179 139.425 42.4495 140.666 42.4495C141.908 42.4495 142.854 42.179 143.702 41.6381H143.714Z" fill="white"/>
<path d="M156.988 29.1356C157.959 28.607 159.164 28.3365 160.602 28.3365V30.365L160.098 30.3404C158.463 30.3404 157.197 30.8444 156.263 31.8402C155.341 32.836 154.874 34.2497 154.874 36.0569V43.9493H152.785V28.4472H154.788V31.4837C155.28 30.4387 156.005 29.6519 156.988 29.1233V29.1356Z" fill="white"/>
<path d="M187.678 30.0207C188.784 31.1395 189.337 32.7868 189.337 34.975V43.9616H187.248V35.184C187.248 33.5736 186.855 32.3442 186.08 31.496C185.306 30.6477 184.212 30.2297 182.799 30.2297C181.189 30.2297 179.923 30.7215 179.001 31.7172C178.079 32.713 177.612 34.0776 177.612 35.8233V43.9493H175.523V35.1717C175.523 33.5613 175.129 32.3319 174.355 31.4837C173.581 30.6354 172.475 30.2174 171.037 30.2174C169.451 30.2174 168.185 30.7092 167.251 31.705C166.317 32.7007 165.85 34.0653 165.85 35.811V43.937H163.761V28.4349H165.764V31.2624C166.317 30.3158 167.079 29.5905 168.062 29.0864C169.046 28.5701 170.176 28.3242 171.454 28.3242C172.733 28.3242 173.876 28.5947 174.822 29.1479C175.768 29.7011 176.481 30.5125 176.961 31.5943C177.526 30.574 178.35 29.7749 179.419 29.1971C180.488 28.6193 181.717 28.3242 183.081 28.3242C185.023 28.3242 186.547 28.8897 187.666 30.0085L187.678 30.0207Z" fill="white"/>
<path d="M201.419 23.3331H210.428C212.628 23.3331 214.582 23.7634 216.291 24.6116C217.999 25.4599 219.327 26.6769 220.273 28.2382C221.219 29.7995 221.686 31.6066 221.686 33.6473C221.686 35.6881 221.219 37.4952 220.273 39.0565C219.327 40.6177 217.999 41.8225 216.291 42.6831C214.582 43.5313 212.628 43.9616 210.428 43.9616H201.419V23.3331ZM210.256 40.7161C211.768 40.7161 213.095 40.4211 214.25 39.8433C215.394 39.2655 216.278 38.4418 216.905 37.3723C217.52 36.3027 217.827 35.0611 217.827 33.6473C217.827 32.2336 217.52 30.9919 216.905 29.9224C216.291 28.8529 215.406 28.0292 214.25 27.4514C213.095 26.8736 211.768 26.5786 210.256 26.5786H205.254V40.7161H210.256Z" fill="#4E9A34"/>
<path d="M239.532 37.2616H227.193C227.414 38.4172 227.979 39.3392 228.889 40.0154C229.798 40.6915 230.941 41.0357 232.293 41.0357C234.026 41.0357 235.44 40.4702 236.558 39.3269L238.537 41.6012C237.824 42.4495 236.939 43.0887 235.857 43.519C234.776 43.9493 233.559 44.1706 232.207 44.1706C230.474 44.1706 228.962 43.8264 227.647 43.1379C226.332 42.4495 225.312 41.4906 224.599 40.2612C223.886 39.0319 223.518 37.6427 223.518 36.0937C223.518 34.5448 223.862 33.1802 224.562 31.9508C225.263 30.7215 226.222 29.7626 227.463 29.0741C228.704 28.3857 230.093 28.0415 231.642 28.0415C233.19 28.0415 234.542 28.3857 235.747 29.0618C236.951 29.738 237.898 30.6969 238.574 31.9139C239.25 33.1433 239.594 34.557 239.594 36.1675C239.594 36.4257 239.569 36.7822 239.532 37.2616ZM228.655 32.0369C227.844 32.7376 227.34 33.6596 227.168 34.8275H236.091C235.931 33.6842 235.452 32.7622 234.653 32.0615C233.842 31.3484 232.846 31.0042 231.642 31.0042C230.437 31.0042 229.466 31.3484 228.655 32.0492V32.0369Z" fill="#4E9A34"/>
<path d="M256.235 29.7872C257.427 30.9428 258.03 32.6639 258.03 34.9381V43.9493H254.343V35.4053C254.343 34.0284 254.023 32.9958 253.372 32.295C252.72 31.5943 251.798 31.2501 250.606 31.2501C249.254 31.2501 248.185 31.6558 247.398 32.4672C246.612 33.2785 246.218 34.4587 246.218 35.9831V43.937H242.531V28.2013H246.034V30.2297C246.649 29.5044 247.411 28.9512 248.332 28.5824C249.254 28.2136 250.299 28.0169 251.454 28.0169C253.433 28.0169 255.031 28.5947 256.223 29.7503L256.235 29.7872Z" fill="#4E9A34"/>
<path d="M271.586 43.101C271.156 43.4576 270.628 43.7157 270.013 43.9001C269.399 44.0722 268.747 44.1706 268.059 44.1706C266.326 44.1706 264.999 43.7157 264.052 42.8183C263.106 41.9209 262.639 40.5932 262.639 38.8721V31.2993H260.045V28.3488H262.639V24.7591H266.326V28.3488H270.542V31.2993H266.326V38.786C266.326 39.5482 266.51 40.1383 266.891 40.544C267.26 40.9497 267.801 41.1464 268.514 41.1464C269.337 41.1464 270.025 40.9251 270.578 40.4948L271.611 43.1133L271.586 43.101Z" fill="#4E9A34"/>
<path d="M285.352 29.7134C286.581 30.8198 287.195 32.4917 287.195 34.7414V43.9616H283.717V42.0438C283.262 42.7322 282.623 43.2608 281.788 43.6174C280.952 43.9862 279.944 44.1583 278.764 44.1583C277.584 44.1583 276.552 43.9616 275.667 43.5559C274.782 43.1502 274.106 42.597 273.614 41.8717C273.135 41.1587 272.889 40.3473 272.889 39.4376C272.889 38.0238 273.418 36.8928 274.462 36.0323C275.519 35.1717 277.166 34.7537 279.428 34.7537H283.496V34.5202C283.496 33.426 283.164 32.5778 282.513 31.9877C281.849 31.3976 280.878 31.1026 279.588 31.1026C278.703 31.1026 277.83 31.2378 276.982 31.5205C276.134 31.791 275.409 32.1844 274.819 32.6761L273.381 29.9962C274.204 29.3692 275.2 28.8897 276.355 28.5578C277.51 28.2259 278.739 28.0538 280.042 28.0538C282.365 28.0538 284.135 28.607 285.364 29.7134H285.352ZM281.997 40.8513C282.709 40.4333 283.226 39.831 283.508 39.0442V37.2124H279.71C277.596 37.2124 276.527 37.9132 276.527 39.3023C276.527 39.9662 276.798 40.4948 277.326 40.8882C277.855 41.2816 278.592 41.4783 279.538 41.4783C280.485 41.4783 281.284 41.2693 281.997 40.839V40.8513Z" fill="#4E9A34"/>
<path d="M291.313 22.0914H295V43.9493H291.313V22.0914Z" fill="#4E9A34"/>
<path d="M61.4286 60.5824C60.6297 60.1398 60.0152 59.5375 59.5604 58.763C59.1057 57.9885 58.8845 57.1156 58.8845 56.1567C58.8845 55.1978 59.1057 54.325 59.5604 53.5505C60.0152 52.776 60.642 52.1614 61.4409 51.7311C62.2398 51.2885 63.137 51.0795 64.1326 51.0795C64.87 51.0795 65.5583 51.2025 66.1851 51.4483C66.8119 51.6942 67.3527 52.063 67.7829 52.5302L67.1069 53.2063C66.3326 52.4195 65.337 52.0261 64.1449 52.0261C63.3583 52.0261 62.6331 52.2105 61.994 52.567C61.3426 52.9235 60.8387 53.4276 60.47 54.0546C60.1012 54.6815 59.9169 55.3822 59.9169 56.169C59.9169 56.9558 60.1012 57.6565 60.47 58.2835C60.8387 58.9105 61.3426 59.4022 61.994 59.771C62.6454 60.1275 63.3583 60.3119 64.1449 60.3119C65.3493 60.3119 66.3326 59.9063 67.1069 59.1072L67.7829 59.7833C67.3404 60.2628 66.8119 60.6193 66.1728 60.8774C65.546 61.1356 64.8577 61.2585 64.108 61.2585C63.1124 61.2585 62.2275 61.0373 61.4286 60.607V60.5824Z" fill="white"/>
<path d="M74.9975 53.9685C75.4645 53.7103 76.0545 53.5874 76.7428 53.5874V54.5709H76.497C75.7104 54.5586 75.0835 54.8045 74.6411 55.2839C74.1986 55.7756 73.9651 56.4518 73.9651 57.3246V61.1479H72.9572V53.6366H73.9282V55.1118C74.1617 54.6078 74.5182 54.2267 74.9975 53.9685Z" fill="white"/>
<path d="M88.1854 57.718H81.9048C81.9663 58.5048 82.2613 59.1318 82.8021 59.6112C83.3429 60.0907 84.0311 60.3365 84.8546 60.3365C85.3216 60.3365 85.7518 60.2505 86.1451 60.0907C86.5384 59.9186 86.8703 59.685 87.153 59.353L87.7183 60.0046C87.3865 60.4103 86.9686 60.7053 86.4647 60.9143C85.9608 61.1233 85.42 61.234 84.8177 61.234C84.0434 61.234 83.3674 61.0741 82.7652 60.7422C82.1629 60.4103 81.7082 59.9554 81.3763 59.3776C81.0445 58.7998 80.8724 58.136 80.8724 57.4107C80.8724 56.6854 81.0322 56.0215 81.3518 55.4437C81.6713 54.8659 82.1138 54.4111 82.6669 54.0914C83.2199 53.7718 83.8468 53.5997 84.5473 53.5997C85.2479 53.5997 85.8624 53.7595 86.4155 54.0914C86.9686 54.4111 87.3988 54.8659 87.7183 55.4437C88.0379 56.0215 88.1854 56.6731 88.1854 57.423V57.7426V57.718ZM82.7406 55.1487C82.249 55.6158 81.9786 56.2182 81.9048 56.9558H87.2267C87.1652 56.2182 86.8826 55.6158 86.3909 55.1487C85.8993 54.6815 85.2848 54.4602 84.5596 54.4602C83.8345 54.4602 83.2322 54.6938 82.7406 55.1487Z" fill="white"/>
<path d="M98.0793 54.325C98.6078 54.8167 98.8659 55.5421 98.8659 56.501V61.1602H97.895V59.9923C97.6614 60.3857 97.3296 60.693 96.8871 60.902C96.4447 61.111 95.9162 61.234 95.3139 61.234C94.4782 61.234 93.8145 61.0373 93.3106 60.6316C92.8189 60.2259 92.5731 59.6973 92.5731 59.0457C92.5731 58.3942 92.8066 57.8901 93.2614 57.509C93.7284 57.1156 94.4536 56.9189 95.4614 56.9189H97.8458V56.4641C97.8458 55.8125 97.6614 55.3208 97.305 54.9889C96.9486 54.6569 96.4201 54.4848 95.7195 54.4848C95.2402 54.4848 94.7854 54.5586 94.343 54.7184C93.9005 54.8782 93.5318 55.0872 93.2122 55.37L92.7575 54.6078C93.1385 54.2881 93.5932 54.03 94.134 53.8579C94.6625 53.6857 95.2279 53.5997 95.8178 53.5997C96.8011 53.5997 97.5508 53.8456 98.0793 54.3373V54.325ZM96.9363 60.0292C97.3419 59.771 97.6492 59.3899 97.8458 58.8982V57.6688H95.486C94.1955 57.6688 93.5564 58.1114 93.5564 59.0088C93.5564 59.4514 93.7284 59.7956 94.0603 60.0415C94.3921 60.2874 94.8592 60.4226 95.4614 60.4226C96.0637 60.4226 96.5184 60.2874 96.9363 60.0292Z" fill="white"/>
<path d="M108.723 60.6931C108.539 60.8652 108.293 61.0004 108.022 61.0864C107.752 61.1725 107.445 61.2217 107.15 61.2217C106.449 61.2217 105.908 61.0373 105.527 60.6562C105.146 60.2751 104.962 59.7342 104.962 59.0457V54.5094H103.622V53.6489H104.962V52.0015H105.97V53.6489H108.256V54.5094H105.97V58.9965C105.97 59.4391 106.081 59.7833 106.302 60.0169C106.523 60.2505 106.843 60.3611 107.26 60.3611C107.469 60.3611 107.666 60.3242 107.863 60.2628C108.059 60.2013 108.231 60.103 108.367 59.98L108.723 60.7053V60.6931Z" fill="white"/>
<path d="M113.688 51.7803C113.541 51.6327 113.48 51.4606 113.48 51.2639C113.48 51.0672 113.553 50.9074 113.688 50.7599C113.824 50.6124 114.008 50.5509 114.217 50.5509C114.426 50.5509 114.598 50.6247 114.745 50.7599C114.893 50.8951 114.954 51.0672 114.954 51.2516C114.954 51.4606 114.881 51.6327 114.745 51.7803C114.598 51.9278 114.426 51.9892 114.217 51.9892C114.008 51.9892 113.836 51.9155 113.688 51.7803ZM113.713 53.6366H114.733V61.1479H113.713V53.6366Z" fill="white"/>
<path d="M126.766 54.4111C127.319 54.9643 127.601 55.751 127.601 56.8083V61.1602H126.581V56.9066C126.581 56.1199 126.385 55.5298 125.991 55.1241C125.598 54.7184 125.045 54.5094 124.32 54.5094C123.509 54.5094 122.87 54.7553 122.403 55.2347C121.935 55.7142 121.702 56.378 121.702 57.2263V61.1725H120.682V53.6612H121.653V55.0503C121.923 54.5955 122.316 54.2389 122.808 53.9808C123.3 53.7226 123.865 53.5997 124.516 53.5997C125.463 53.5997 126.213 53.8701 126.766 54.4234V54.4111Z" fill="white"/>
<path d="M140.482 53.6366V60.2382C140.482 61.5167 140.175 62.4633 139.548 63.078C138.921 63.6927 137.987 64 136.733 64C136.033 64 135.381 63.9017 134.755 63.6927C134.128 63.4837 133.624 63.2009 133.231 62.8444L133.747 62.0699C134.103 62.3895 134.546 62.6477 135.062 62.8321C135.578 63.0165 136.131 63.1026 136.697 63.1026C137.655 63.1026 138.343 62.8813 138.798 62.4387C139.241 61.9962 139.462 61.3077 139.462 60.3734V59.4145C139.142 59.894 138.737 60.2505 138.233 60.4963C137.717 60.7422 137.164 60.8651 136.537 60.8651C135.836 60.8651 135.197 60.7053 134.619 60.398C134.042 60.0907 133.587 59.6604 133.267 59.0949C132.936 58.5417 132.776 57.9024 132.776 57.2017C132.776 56.501 132.936 55.874 133.267 55.3208C133.599 54.7676 134.042 54.3373 134.619 54.03C135.185 53.7226 135.836 53.5751 136.549 53.5751C137.188 53.5751 137.766 53.698 138.282 53.9562C138.798 54.2144 139.204 54.5832 139.523 55.0749V53.6366H140.494H140.482ZM138.11 59.6235C138.552 59.3899 138.884 59.058 139.13 58.64C139.376 58.222 139.499 57.7426 139.499 57.214C139.499 56.6854 139.376 56.2059 139.13 55.7879C138.884 55.37 138.552 55.0503 138.11 54.8167C137.68 54.5832 137.188 54.4725 136.635 54.4725C136.082 54.4725 135.603 54.5832 135.172 54.8167C134.742 55.0503 134.398 55.37 134.152 55.7879C133.907 56.2059 133.784 56.6854 133.784 57.214C133.784 57.7426 133.907 58.222 134.152 58.64C134.398 59.058 134.73 59.3899 135.172 59.6235C135.615 59.8571 136.094 59.9677 136.635 59.9677C137.176 59.9677 137.667 59.8571 138.11 59.6235Z" fill="white"/>
<path d="M159.422 54.4111C159.975 54.9643 160.258 55.7511 160.258 56.8083V61.1602H159.25V56.9066C159.25 56.1199 159.053 55.5298 158.66 55.1241C158.267 54.7184 157.714 54.5094 156.988 54.5094C156.177 54.5094 155.538 54.7553 155.071 55.2347C154.604 55.7142 154.358 56.378 154.358 57.2263V61.1725H153.35V50.5755H154.358V54.9766C154.629 54.534 155.022 54.2021 155.501 53.9562C155.981 53.7226 156.546 53.5997 157.173 53.5997C158.119 53.5997 158.869 53.8701 159.422 54.4234V54.4111Z" fill="white"/>
<path d="M172.733 57.718H166.452C166.514 58.5048 166.809 59.1318 167.349 59.6112C167.89 60.0907 168.578 60.3365 169.402 60.3365C169.869 60.3365 170.299 60.2505 170.692 60.0907C171.086 59.9186 171.418 59.685 171.7 59.353L172.266 60.0046C171.934 60.4103 171.516 60.7053 171.012 60.9143C170.508 61.1233 169.967 61.234 169.365 61.234C168.591 61.234 167.915 61.0741 167.313 60.7422C166.723 60.4103 166.256 59.9554 165.924 59.3776C165.592 58.7998 165.42 58.136 165.42 57.4107C165.42 56.6854 165.58 56.0215 165.899 55.4437C166.219 54.8659 166.661 54.4111 167.214 54.0914C167.767 53.7718 168.394 53.5997 169.095 53.5997C169.795 53.5997 170.41 53.7595 170.963 54.0914C171.516 54.4111 171.946 54.8659 172.266 55.4437C172.585 56.0215 172.733 56.6731 172.733 57.423V57.7426V57.718ZM167.276 55.1487C166.784 55.6158 166.501 56.2182 166.44 56.9558H171.762C171.7 56.2182 171.418 55.6158 170.926 55.1487C170.434 54.6815 169.82 54.4602 169.095 54.4602C168.369 54.4602 167.767 54.6938 167.276 55.1487Z" fill="white"/>
<path d="M182.627 54.325C183.155 54.8167 183.413 55.5421 183.413 56.501V61.1602H182.442V59.9923C182.209 60.3857 181.877 60.693 181.434 60.902C180.992 61.1233 180.463 61.234 179.861 61.234C179.025 61.234 178.362 61.0373 177.858 60.6316C177.366 60.2259 177.12 59.6973 177.12 59.0457C177.12 58.3942 177.354 57.8901 177.809 57.509C178.276 57.1156 179.001 56.9189 180.009 56.9189H182.393V56.4641C182.393 55.8125 182.209 55.3208 181.852 54.9889C181.496 54.6569 180.967 54.4848 180.267 54.4848C179.787 54.4848 179.333 54.5586 178.89 54.7184C178.448 54.8782 178.079 55.0872 177.76 55.37L177.305 54.6078C177.686 54.2881 178.141 54.03 178.681 53.8579C179.21 53.6857 179.775 53.5997 180.365 53.5997C181.348 53.5997 182.098 53.8456 182.627 54.3373V54.325ZM181.484 60.0292C181.889 59.771 182.196 59.3899 182.393 58.8982V57.6688H180.033C178.755 57.6688 178.104 58.1114 178.104 59.0088C178.104 59.4514 178.276 59.7956 178.608 60.0415C178.939 60.2996 179.406 60.4226 180.009 60.4226C180.611 60.4226 181.066 60.2874 181.484 60.0292Z" fill="white"/>
<path d="M189.313 50.5509H190.321V61.1479H189.313V50.5509Z" fill="white"/>
<path d="M200.276 60.6931C200.079 60.8652 199.846 61.0004 199.563 61.0864C199.28 61.1725 198.986 61.2217 198.691 61.2217C197.99 61.2217 197.449 61.0373 197.056 60.6562C196.675 60.2751 196.49 59.7342 196.49 59.0457V54.5094H195.151V53.6489H196.49V52.0015H197.511V53.6489H199.797V54.5094H197.511V58.9965C197.511 59.4391 197.621 59.7833 197.842 60.0169C198.064 60.2505 198.383 60.3611 198.801 60.3611C199.01 60.3611 199.207 60.3242 199.403 60.2628C199.6 60.2013 199.772 60.103 199.907 59.98L200.264 60.7053L200.276 60.6931Z" fill="white"/>
<path d="M211.338 54.4111C211.891 54.9643 212.173 55.7511 212.173 56.8083V61.1602H211.166V56.9066C211.166 56.1199 210.969 55.5298 210.576 55.1241C210.182 54.7184 209.629 54.5094 208.904 54.5094C208.093 54.5094 207.454 54.7553 206.987 55.2347C206.52 55.7142 206.274 56.378 206.274 57.2263V61.1725H205.266V50.5755H206.274V54.9766C206.544 54.534 206.938 54.2021 207.417 53.9562C207.908 53.7226 208.462 53.5997 209.088 53.5997C210.035 53.5997 210.784 53.8701 211.338 54.4234V54.4111Z" fill="white"/>
<path d="M224.243 53.6366L220.482 62.0453C220.175 62.7461 219.83 63.2501 219.425 63.5451C219.032 63.8402 218.54 63.9877 217.987 63.9877C217.63 63.9877 217.286 63.9262 216.967 63.8156C216.647 63.705 216.377 63.5328 216.156 63.2993L216.623 62.5371C217.004 62.9182 217.458 63.1026 217.999 63.1026C218.343 63.1026 218.638 63.0042 218.872 62.8198C219.118 62.6231 219.339 62.3035 219.548 61.8486L219.88 61.1233L216.524 53.6243H217.581L220.408 60.0046L223.235 53.6243H224.23L224.243 53.6366Z" fill="white"/>
<path d="M235.956 60.9635C235.403 60.7914 234.96 60.5701 234.653 60.2996L235.108 59.5006C235.427 59.7464 235.821 59.9554 236.288 60.103C236.755 60.2505 237.259 60.3365 237.775 60.3365C238.463 60.3365 238.967 60.2259 239.299 60.0169C239.631 59.8079 239.79 59.5006 239.79 59.1072C239.79 58.8367 239.704 58.6154 239.52 58.4556C239.336 58.2958 239.114 58.1852 238.832 58.0991C238.549 58.0131 238.193 57.9393 237.738 57.8655C237.123 57.7549 236.644 57.632 236.263 57.5213C235.894 57.3984 235.575 57.2017 235.317 56.9189C235.059 56.6362 234.923 56.2428 234.923 55.7388C234.923 55.1118 235.181 54.5955 235.71 54.2021C236.238 53.7964 236.964 53.5997 237.898 53.5997C238.389 53.5997 238.869 53.6612 239.36 53.7964C239.852 53.9193 240.245 54.0914 240.565 54.3004L240.122 55.1118C239.508 54.6815 238.77 54.4725 237.91 54.4725C237.259 54.4725 236.779 54.5832 236.447 54.8167C236.116 55.0503 235.956 55.3454 235.956 55.7142C235.956 55.9969 236.054 56.2305 236.238 56.4026C236.423 56.5747 236.656 56.6976 236.927 56.7837C237.197 56.8698 237.578 56.9435 238.07 57.0296C238.672 57.1402 239.151 57.2632 239.508 57.3738C239.864 57.4844 240.171 57.6811 240.43 57.9639C240.688 58.2343 240.811 58.6154 240.811 59.1072C240.811 59.7587 240.54 60.2874 239.987 60.6685C239.434 61.0496 238.684 61.2462 237.713 61.2462C237.099 61.2462 236.521 61.1602 235.968 60.9881L235.956 60.9635Z" fill="white"/>
<path d="M257.403 54.3988C257.944 54.9397 258.214 55.7388 258.214 56.796V61.1479H257.194V56.8943C257.194 56.1076 257.01 55.5175 256.629 55.1118C256.248 54.7061 255.719 54.4971 255.043 54.4971C254.269 54.4971 253.654 54.743 253.2 55.2224C252.745 55.7019 252.524 56.3657 252.524 57.214V61.1602H251.503V56.9066C251.503 56.1199 251.319 55.5298 250.938 55.1241C250.557 54.7184 250.029 54.5094 249.328 54.5094C248.554 54.5094 247.951 54.7553 247.497 55.2347C247.042 55.7142 246.821 56.378 246.821 57.2263V61.1725H245.813V53.6612H246.784V55.038C247.054 54.5832 247.423 54.2267 247.902 53.9808C248.382 53.7349 248.922 53.612 249.549 53.612C250.176 53.612 250.717 53.7472 251.184 54.0177C251.651 54.2881 251.995 54.6815 252.216 55.1978C252.487 54.7061 252.892 54.3127 253.408 54.03C253.925 53.7472 254.515 53.612 255.191 53.612C256.137 53.612 256.874 53.8824 257.415 54.4234L257.403 54.3988Z" fill="white"/>
<path d="M264.101 51.7803C263.954 51.6327 263.892 51.4606 263.892 51.2639C263.892 51.0672 263.966 50.9074 264.101 50.7599C264.249 50.6124 264.421 50.5509 264.63 50.5509C264.839 50.5509 265.011 50.6247 265.158 50.7599C265.306 50.8951 265.367 51.0672 265.367 51.2516C265.367 51.4606 265.294 51.6327 265.158 51.7803C265.023 51.9278 264.839 51.9892 264.63 51.9892C264.421 51.9892 264.249 51.9155 264.101 51.7803ZM264.114 53.6366H265.121V61.1479H264.114V53.6366Z" fill="white"/>
<path d="M271.095 50.5509H272.103V61.1479H271.095V50.5509Z" fill="white"/>
<path d="M284.614 57.718H278.334C278.395 58.5048 278.69 59.1318 279.231 59.6112C279.772 60.0907 280.46 60.3365 281.284 60.3365C281.751 60.3365 282.181 60.2505 282.574 60.0907C282.967 59.9186 283.299 59.685 283.582 59.353L284.147 60.0046C283.816 60.4103 283.398 60.7053 282.894 60.9143C282.39 61.1233 281.849 61.234 281.247 61.234C280.472 61.234 279.796 61.0741 279.194 60.7422C278.604 60.4103 278.137 59.9554 277.805 59.3776C277.474 58.7998 277.301 58.136 277.301 57.4107C277.301 56.6854 277.461 56.0215 277.781 55.4437C278.1 54.8659 278.543 54.4111 279.096 54.0914C279.649 53.7718 280.276 53.5997 280.976 53.5997C281.677 53.5997 282.291 53.7595 282.845 54.0914C283.398 54.4111 283.828 54.8659 284.147 55.4437C284.467 56.0215 284.614 56.6731 284.614 57.423V57.7426V57.718ZM279.17 55.1487C278.678 55.6158 278.395 56.2182 278.334 56.9558H283.656C283.594 56.2182 283.312 55.6158 282.82 55.1487C282.328 54.6815 281.714 54.4602 280.989 54.4602C280.264 54.4602 279.661 54.6938 279.17 55.1487Z" fill="white"/>
<path d="M290.108 60.9635C289.555 60.7914 289.113 60.5701 288.805 60.2996L289.26 59.5006C289.58 59.7464 289.973 59.9554 290.44 60.103C290.907 60.2505 291.411 60.3365 291.927 60.3365C292.616 60.3365 293.119 60.2259 293.451 60.0169C293.783 59.8079 293.943 59.5006 293.943 59.1072C293.943 58.8367 293.857 58.6154 293.673 58.4556C293.488 58.2958 293.267 58.1852 292.984 58.0991C292.702 58.0131 292.345 57.9393 291.89 57.8655C291.276 57.7549 290.784 57.632 290.416 57.5213C290.047 57.3984 289.727 57.2017 289.469 56.9189C289.211 56.6362 289.076 56.2428 289.076 55.7388C289.076 55.1118 289.334 54.5955 289.862 54.2021C290.391 53.7964 291.116 53.5997 292.05 53.5997C292.53 53.5997 293.021 53.6612 293.513 53.7964C293.992 53.9193 294.398 54.0914 294.705 54.3004L294.263 55.1118C293.648 54.6815 292.911 54.4725 292.05 54.4725C291.399 54.4725 290.919 54.5832 290.588 54.8167C290.256 55.0503 290.096 55.3454 290.096 55.7142C290.096 55.9969 290.194 56.2305 290.379 56.4026C290.563 56.5747 290.797 56.6976 291.067 56.7837C291.337 56.8698 291.731 56.9435 292.21 57.0296C292.812 57.1402 293.292 57.2632 293.648 57.3738C294.004 57.4844 294.324 57.6811 294.582 57.9639C294.84 58.2466 294.963 58.6154 294.963 59.1072C294.963 59.7587 294.693 60.2874 294.14 60.6685C293.587 61.0496 292.837 61.2462 291.866 61.2462C291.251 61.2462 290.674 61.1602 290.121 60.9881L290.108 60.9635Z" fill="white"/>
</g>
<defs>
<clipPath id="clip0_25_2401">
<rect width="295" height="64" fill="white"/>
</clipPath>
</defs>
</svg>
