<svg width="75" height="46" viewBox="0 0 75 46" fill="none" xmlns="http://www.w3.org/2000/svg">
<path fill-rule="evenodd" clip-rule="evenodd" d="M46.1221 10.8043C51.9159 6.95942 57.8639 5.59654 57.8639 5.59654C58.6815 5.40735 59.5087 5.88515 59.7556 6.69002C59.7556 6.69002 61.5511 12.5231 61.1151 19.463C68.0537 19.0397 73.8664 20.8002 73.8664 20.8002C74.6712 21.0471 75.1457 21.8713 74.9597 22.6922C74.9597 22.6922 71.6957 36.6897 61.2398 42.7276C51.925 48.1053 39.9944 45.3828 37.5005 44.7254C35.006 45.386 23.0754 48.1086 13.7612 42.7276C3.30264 36.6893 0.0412702 22.6922 0.0412702 22.6922C-0.1479 21.8745 0.329841 21.0471 1.1346 20.8002C1.1346 20.8002 6.94446 19.0365 13.8859 19.463C13.4531 12.5234 15.2454 6.69002 15.2454 6.69002C15.4923 5.8851 16.3163 5.41053 17.1371 5.59654C17.1371 5.59654 23.0848 6.95942 28.8789 10.8043C31.9826 4.58003 36.414 0.430505 36.414 0.430505C37.0296 -0.143502 37.9818 -0.143502 38.5975 0.430505C38.5975 0.430505 43.0286 4.58324 46.1325 10.8043H46.1221ZM27.5642 13.7898C23.8481 11.218 19.9778 9.7878 17.9162 9.14323C17.4417 11.2501 16.7459 15.3162 17.1146 19.8221C19.8817 20.2775 22.7129 21.1497 25.3358 22.6665C25.5346 22.782 25.7301 22.8974 25.9257 23.0193C25.9193 22.7916 25.9129 22.5639 25.9129 22.333C25.9129 19.3027 26.5734 16.4166 27.561 13.7906L27.5642 13.7898ZM26.5061 27.396C25.6532 26.6777 24.733 26.0172 23.7326 25.4431C21.1708 23.9648 18.3877 23.1759 15.6976 22.8135C15.5244 22.82 15.3577 22.7975 15.1974 22.7494C10.327 22.1818 5.82504 22.9611 3.57464 23.4742C4.65196 26.9727 7.98009 35.6923 15.3574 39.9502C22.0843 43.8336 30.3373 42.9485 34.4448 42.1436C32.0144 39.3345 28.0065 33.9247 26.5061 27.3922L26.5061 27.396ZM40.5461 42.1474C44.6534 42.9524 52.909 43.8374 59.6335 39.9541C67.0113 35.6955 70.3397 26.9759 71.4163 23.478C69.1623 22.9617 64.6606 22.1857 59.7936 22.7533C59.6332 22.8014 59.4665 22.8206 59.2934 22.8174C56.6033 23.1798 53.8202 23.9686 51.2583 25.447C50.2611 26.0242 49.3377 26.6816 48.4848 27.3999C46.9842 33.932 42.9764 39.339 40.5462 42.1513L40.5461 42.1474ZM49.0655 23.0191C49.2579 22.8973 49.4567 22.7818 49.6555 22.6664C52.2783 21.1528 55.1094 20.2806 57.8766 19.822C58.2453 15.3165 57.5496 11.2508 57.075 9.14308C55.0133 9.78764 51.1433 11.2178 47.427 13.7897C48.4146 16.416 49.0751 19.3021 49.0751 22.3321C49.0751 22.563 49.0719 22.7907 49.0623 23.0184L49.0655 23.0191ZM43.9354 13.5949C41.9924 9.09261 39.0683 5.58464 37.4939 3.88805C35.9228 5.58122 32.9955 9.09261 31.0525 13.5949C31.014 13.7552 30.9467 13.9123 30.8569 14.0598C29.8276 16.5739 29.1159 19.3766 29.1159 22.3334C29.1159 23.6097 29.2473 24.8604 29.4814 26.0693C29.507 26.1623 29.5263 26.2553 29.5391 26.3515C30.9307 33.076 35.4066 38.5272 37.4942 40.7786C39.5815 38.5307 44.0542 33.0762 45.4492 26.3515C45.4588 26.2553 45.4781 26.1623 45.5069 26.0693C45.741 24.8603 45.8725 23.6097 45.8725 22.3334C45.8725 19.3768 45.1639 16.5709 44.1314 14.0598C44.0385 13.9123 43.9743 13.7552 43.9359 13.5949H43.9354Z" fill="white"/>
</svg>
