<svg width="63" height="57" viewBox="0 0 63 57" fill="none" xmlns="http://www.w3.org/2000/svg">
<path d="M19.466 5.21664C15.9458 5.21664 12.4175 6.61047 9.76126 9.42256C4.44062 15.0386 4.44869 24.0455 9.76126 29.6697L30.0588 51.1639C30.8097 51.9627 32.0692 51.9953 32.8524 51.2291C32.8766 51.2046 32.9008 51.1883 32.917 51.1639C39.6909 44.0073 46.4648 36.8426 53.2388 29.6941C58.5594 24.0781 58.5594 15.0712 53.2388 9.44702C47.9181 3.83097 39.1419 3.83097 33.8212 9.44702L31.496 11.8842L29.1707 9.43072C26.5144 6.61862 22.9862 5.2248 19.466 5.2248V5.21664ZM19.466 9.12913C21.9285 9.12913 24.3991 10.1562 26.3287 12.1858L30.0831 16.1634C30.8339 16.9622 32.0934 16.9949 32.8766 16.2287C32.9008 16.2042 32.925 16.1879 32.9412 16.1634L36.6713 12.2102C40.5225 8.14286 46.5214 8.14286 50.3726 12.2102C54.2238 16.2776 54.2238 22.8717 50.3726 26.9391C44.0831 33.5903 37.7855 40.2252 31.496 46.8683L12.6194 26.9146C8.76818 22.8391 8.76818 16.2531 12.6194 12.1858C14.549 10.148 17.0035 9.12913 19.4579 9.12913H19.466Z" fill="white"/>
</svg>
