<svg width="46" height="66" viewBox="0 0 46 66" fill="none" xmlns="http://www.w3.org/2000/svg">
<path d="M22.9996 0.00208235C29.3509 0.00208235 35.1 2.56822 39.2634 6.71448C43.4246 10.8629 46 16.5914 46 22.9199C46 29.0749 43.5624 34.6636 39.5997 38.7818V64.4521C39.5997 65.3068 38.9041 66 38.0462 66C37.7115 66 37.3993 65.893 37.1478 65.713L22.9986 57.3151L8.74637 65.7736C8.01232 66.2121 7.06326 65.9736 6.6232 65.2421C6.47512 64.9935 6.40426 64.7208 6.40426 64.45H6.4003V38.7797C2.43777 34.6617 0 29.0723 0 22.9178C0 16.5893 2.57539 10.8608 6.7366 6.7124C10.8978 2.56613 16.6491 0 23.0004 0L22.9996 0.00208235ZM24.4758 10.3297L26.8466 17.6466L34.5752 17.6324C35.4289 17.6324 36.1225 18.3214 36.1225 19.1741C36.1225 19.6874 35.871 20.1421 35.4837 20.4208L35.4857 20.4248L29.2257 24.9389L31.6287 32.2575C31.8923 33.0699 31.4483 33.9407 30.633 34.2034C30.1016 34.3751 29.546 34.2459 29.1506 33.9105L22.9999 29.4408L16.7539 33.9791C16.0645 34.4803 15.097 34.3266 14.5942 33.6397C14.2921 33.2255 14.2272 32.7122 14.3752 32.2575L14.3713 32.2555L16.7744 24.9369L10.5143 20.4228C9.82077 19.9215 9.66671 18.9557 10.1695 18.2666C10.4961 17.818 11.0193 17.5957 11.5364 17.6321L19.1535 17.6464L21.5262 10.3194C21.7878 9.50897 22.6598 9.06258 23.4729 9.32307C23.9698 9.48269 24.3307 9.86857 24.4767 10.3295L24.4758 10.3297ZM24.2468 19.6611L22.9996 15.8117L21.7523 19.6611C21.5517 20.2813 20.9674 20.7299 20.28 20.7299L16.2181 20.7218L19.5075 23.0941C20.0367 23.4761 20.2842 24.1691 20.0713 24.8218L18.8078 28.6732L22.0666 26.3051C22.5958 25.9049 23.3462 25.8786 23.9099 26.2869L27.1932 28.6732L25.9459 24.8784C25.7127 24.2459 25.9175 23.5105 26.4914 23.0942L29.7809 20.7218L25.792 20.73C25.1105 20.7622 24.4636 20.3379 24.2466 19.6611L24.2468 19.6611ZM36.4953 41.4799C32.7051 44.2218 28.0407 45.8383 22.9996 45.8383C17.9582 45.8383 13.2961 44.2218 9.50388 41.4799V61.7366L22.1884 54.2098C22.6651 53.9188 23.2814 53.8945 23.7946 54.1997L36.4955 61.7366L36.4953 41.4799ZM37.0672 8.90293C33.4676 5.31419 28.4931 3.09588 22.9997 3.09588C17.5062 3.09588 12.5318 5.31447 8.93224 8.90293C5.33056 12.4896 3.10425 17.4462 3.10425 22.9199C3.10425 28.3937 5.33084 33.3502 8.93224 36.9368C12.5319 40.5235 17.5063 42.7422 22.9997 42.7422C28.4933 42.7422 33.4677 40.5236 37.0672 36.9368C40.6689 33.3501 42.8952 28.3935 42.8952 22.9199C42.8952 17.4461 40.6686 12.4895 37.0672 8.90293Z" fill="white"/>
</svg>
