<svg width="29" height="32" viewBox="0 0 29 32" fill="none" xmlns="http://www.w3.org/2000/svg">
<path fill-rule="evenodd" clip-rule="evenodd" d="M0.0552571 7.07583C-0.0592813 5.37943 -0.107679 5.50541 1.08612 4.12642C4.26902 0.454778 6.13573 0.238111 7.48414 2.27549C7.49705 2.29564 7.50834 2.31076 7.52286 2.32923C12.3561 8.58071 12.0802 7.53285 8.17943 13.9236C8.0052 14.2092 7.99391 14.5468 8.15039 14.8441C10.2153 18.7626 11.9302 20.5482 15.6924 22.6964C15.9779 22.8593 16.3022 22.8492 16.5764 22.6661C22.7147 18.6048 21.7082 18.3177 27.7127 23.3497C27.7304 23.3648 27.7466 23.3766 27.7643 23.39C29.7212 24.7942 29.5131 26.7392 25.9865 30.0513C24.6621 31.2942 24.783 31.2455 23.1537 31.1245C12.8839 30.3687 0.781291 17.7686 0.0552571 7.07583Z" fill="white"/>
</svg>
